<mxfile host="app.diagrams.net" agent="Mozilla/5.0 (Windows NT 10.0; Win64; x64) AppleWebKit/537.36 (KHTML, like Gecko) Chrome/141.0.0.0 Safari/537.36 Edg/141.0.0.0" version="28.2.5">
  <diagram name="Page-1" id="REsOMPNNWmw8ulfZwF3x">
    <mxGraphModel dx="7067" dy="2633" grid="1" gridSize="10" guides="1" tooltips="1" connect="1" arrows="1" fold="1" page="1" pageScale="1" pageWidth="850" pageHeight="1100" math="0" shadow="0">
      <root>
        <mxCell id="0" />
        <mxCell id="1" parent="0" />
        <mxCell id="oJ3E4rCQZsHQg811ANoI-1" value="FileOps.c" style="swimlane;fontStyle=1;align=center;verticalAlign=top;childLayout=stackLayout;horizontal=1;startSize=26;horizontalStack=0;resizeParent=1;resizeParentMax=0;resizeLast=0;collapsible=1;marginBottom=0;whiteSpace=wrap;html=1;" parent="1" vertex="1">
          <mxGeometry x="40" y="40" width="200" height="140" as="geometry" />
        </mxCell>
        <mxCell id="oJ3E4rCQZsHQg811ANoI-3" value="" style="line;strokeWidth=1;fillColor=none;align=left;verticalAlign=middle;spacingTop=-1;spacingLeft=3;spacingRight=3;rotatable=0;labelPosition=right;points=[];portConstraint=eastwest;strokeColor=inherit;" parent="oJ3E4rCQZsHQg811ANoI-1" vertex="1">
          <mxGeometry y="26" width="200" height="8" as="geometry" />
        </mxCell>
        <mxCell id="oJ3E4rCQZsHQg811ANoI-4" value="&lt;div&gt;+ loadGame(* GameParam: bool&lt;/div&gt;+ saveGame(* GameParam): bool" style="text;strokeColor=none;fillColor=none;align=left;verticalAlign=top;spacingLeft=4;spacingRight=4;overflow=hidden;rotatable=0;points=[[0,0.5],[1,0.5]];portConstraint=eastwest;whiteSpace=wrap;html=1;" parent="oJ3E4rCQZsHQg811ANoI-1" vertex="1">
          <mxGeometry y="34" width="200" height="36" as="geometry" />
        </mxCell>
        <mxCell id="oJ3E4rCQZsHQg811ANoI-15" value="+ loadShop(* Shop): bool&lt;div&gt;+ saveShop(* Shop): bool&lt;/div&gt;" style="text;strokeColor=none;fillColor=none;align=left;verticalAlign=top;spacingLeft=4;spacingRight=4;overflow=hidden;rotatable=0;points=[[0,0.5],[1,0.5]];portConstraint=eastwest;whiteSpace=wrap;html=1;" parent="oJ3E4rCQZsHQg811ANoI-1" vertex="1">
          <mxGeometry y="70" width="200" height="40" as="geometry" />
        </mxCell>
        <mxCell id="oJ3E4rCQZsHQg811ANoI-16" value="+ loadMonster(* Game" style="text;strokeColor=none;fillColor=none;align=left;verticalAlign=top;spacingLeft=4;spacingRight=4;overflow=hidden;rotatable=0;points=[[0,0.5],[1,0.5]];portConstraint=eastwest;whiteSpace=wrap;html=1;" parent="oJ3E4rCQZsHQg811ANoI-1" vertex="1">
          <mxGeometry y="110" width="200" height="30" as="geometry" />
        </mxCell>
        <mxCell id="oJ3E4rCQZsHQg811ANoI-21" value="Combat.c" style="swimlane;fontStyle=0;childLayout=stackLayout;horizontal=1;startSize=26;fillColor=none;horizontalStack=0;resizeParent=1;resizeParentMax=0;resizeLast=0;collapsible=1;marginBottom=0;whiteSpace=wrap;html=1;" parent="1" vertex="1">
          <mxGeometry x="40" y="200" width="170" height="112" as="geometry" />
        </mxCell>
        <mxCell id="oJ3E4rCQZsHQg811ANoI-22" value="+ monsterList: monsterObject" style="text;strokeColor=none;fillColor=none;align=left;verticalAlign=top;spacingLeft=4;spacingRight=4;overflow=hidden;rotatable=0;points=[[0,0.5],[1,0.5]];portConstraint=eastwest;whiteSpace=wrap;html=1;" parent="oJ3E4rCQZsHQg811ANoI-21" vertex="1">
          <mxGeometry y="26" width="170" height="26" as="geometry" />
        </mxCell>
        <mxCell id="oJ3E4rCQZsHQg811ANoI-25" value="" style="line;strokeWidth=1;fillColor=none;align=left;verticalAlign=middle;spacingTop=-1;spacingLeft=3;spacingRight=3;rotatable=0;labelPosition=right;points=[];portConstraint=eastwest;strokeColor=inherit;" parent="oJ3E4rCQZsHQg811ANoI-21" vertex="1">
          <mxGeometry y="52" width="170" height="8" as="geometry" />
        </mxCell>
        <mxCell id="oJ3E4rCQZsHQg811ANoI-23" value="+ field: type" style="text;strokeColor=none;fillColor=none;align=left;verticalAlign=top;spacingLeft=4;spacingRight=4;overflow=hidden;rotatable=0;points=[[0,0.5],[1,0.5]];portConstraint=eastwest;whiteSpace=wrap;html=1;" parent="oJ3E4rCQZsHQg811ANoI-21" vertex="1">
          <mxGeometry y="60" width="170" height="26" as="geometry" />
        </mxCell>
        <mxCell id="oJ3E4rCQZsHQg811ANoI-24" value="+ field: type" style="text;strokeColor=none;fillColor=none;align=left;verticalAlign=top;spacingLeft=4;spacingRight=4;overflow=hidden;rotatable=0;points=[[0,0.5],[1,0.5]];portConstraint=eastwest;whiteSpace=wrap;html=1;" parent="oJ3E4rCQZsHQg811ANoI-21" vertex="1">
          <mxGeometry y="86" width="170" height="26" as="geometry" />
        </mxCell>
        <mxCell id="oJ3E4rCQZsHQg811ANoI-69" style="edgeStyle=orthogonalEdgeStyle;rounded=0;orthogonalLoop=1;jettySize=auto;html=1;" parent="1" source="oJ3E4rCQZsHQg811ANoI-26" target="oJ3E4rCQZsHQg811ANoI-58" edge="1">
          <mxGeometry relative="1" as="geometry" />
        </mxCell>
        <mxCell id="oJ3E4rCQZsHQg811ANoI-26" value="Start" style="strokeWidth=2;html=1;shape=mxgraph.flowchart.start_2;whiteSpace=wrap;" parent="1" vertex="1">
          <mxGeometry x="520" y="562" width="70" height="68" as="geometry" />
        </mxCell>
        <mxCell id="oJ3E4rCQZsHQg811ANoI-27" value="Hiện main menu" style="rounded=1;whiteSpace=wrap;html=1;absoluteArcSize=1;arcSize=14;strokeWidth=2;" parent="1" vertex="1">
          <mxGeometry x="-548.56" y="392" width="95" height="50" as="geometry" />
        </mxCell>
        <mxCell id="VBR34R2BidAj_h5bLNep-1" style="edgeStyle=orthogonalEdgeStyle;rounded=0;orthogonalLoop=1;jettySize=auto;html=1;" parent="1" source="oJ3E4rCQZsHQg811ANoI-28" target="oJ3E4rCQZsHQg811ANoI-37" edge="1">
          <mxGeometry relative="1" as="geometry">
            <mxPoint x="-456.05999999999995" y="861.5" as="sourcePoint" />
          </mxGeometry>
        </mxCell>
        <mxCell id="f5wrERzETFn6Pyd23jyl-24" value="Có" style="edgeLabel;html=1;align=center;verticalAlign=middle;resizable=0;points=[];" vertex="1" connectable="0" parent="VBR34R2BidAj_h5bLNep-1">
          <mxGeometry x="-0.1807" y="2" relative="1" as="geometry">
            <mxPoint as="offset" />
          </mxGeometry>
        </mxCell>
        <mxCell id="VBR34R2BidAj_h5bLNep-5" style="edgeStyle=orthogonalEdgeStyle;rounded=0;orthogonalLoop=1;jettySize=auto;html=1;" parent="1" source="oJ3E4rCQZsHQg811ANoI-28" target="oJ3E4rCQZsHQg811ANoI-30" edge="1">
          <mxGeometry relative="1" as="geometry">
            <mxPoint x="-498.55555555555543" y="901.5" as="sourcePoint" />
          </mxGeometry>
        </mxCell>
        <mxCell id="f5wrERzETFn6Pyd23jyl-19" value="Không" style="edgeLabel;html=1;align=center;verticalAlign=middle;resizable=0;points=[];" vertex="1" connectable="0" parent="VBR34R2BidAj_h5bLNep-5">
          <mxGeometry x="-0.5965" relative="1" as="geometry">
            <mxPoint as="offset" />
          </mxGeometry>
        </mxCell>
        <mxCell id="oJ3E4rCQZsHQg811ANoI-28" value="New game" style="strokeWidth=2;html=1;shape=mxgraph.flowchart.decision;whiteSpace=wrap;" parent="1" vertex="1">
          <mxGeometry x="-541.06" y="819.5" width="85" height="80" as="geometry" />
        </mxCell>
        <mxCell id="VBR34R2BidAj_h5bLNep-3" style="edgeStyle=orthogonalEdgeStyle;rounded=0;orthogonalLoop=1;jettySize=auto;html=1;" parent="1" source="oJ3E4rCQZsHQg811ANoI-30" target="oJ3E4rCQZsHQg811ANoI-72" edge="1">
          <mxGeometry relative="1" as="geometry" />
        </mxCell>
        <mxCell id="f5wrERzETFn6Pyd23jyl-25" value="Có" style="edgeLabel;html=1;align=center;verticalAlign=middle;resizable=0;points=[];" vertex="1" connectable="0" parent="VBR34R2BidAj_h5bLNep-3">
          <mxGeometry x="-0.1234" y="-2" relative="1" as="geometry">
            <mxPoint as="offset" />
          </mxGeometry>
        </mxCell>
        <mxCell id="oJ3E4rCQZsHQg811ANoI-30" value="Load game" style="strokeWidth=2;html=1;shape=mxgraph.flowchart.decision;whiteSpace=wrap;" parent="1" vertex="1">
          <mxGeometry x="-541.06" y="929.5" width="85" height="80" as="geometry" />
        </mxCell>
        <mxCell id="VBR34R2BidAj_h5bLNep-7" style="edgeStyle=orthogonalEdgeStyle;rounded=0;orthogonalLoop=1;jettySize=auto;html=1;" parent="1" source="oJ3E4rCQZsHQg811ANoI-32" target="oJ3E4rCQZsHQg811ANoI-35" edge="1">
          <mxGeometry relative="1" as="geometry" />
        </mxCell>
        <mxCell id="f5wrERzETFn6Pyd23jyl-23" value="Có" style="edgeLabel;html=1;align=center;verticalAlign=middle;resizable=0;points=[];" vertex="1" connectable="0" parent="VBR34R2BidAj_h5bLNep-7">
          <mxGeometry x="-0.0328" y="3" relative="1" as="geometry">
            <mxPoint as="offset" />
          </mxGeometry>
        </mxCell>
        <mxCell id="f5wrERzETFn6Pyd23jyl-21" style="edgeStyle=orthogonalEdgeStyle;rounded=0;orthogonalLoop=1;jettySize=auto;html=1;entryX=0.5;entryY=0;entryDx=0;entryDy=0;" edge="1" parent="1" source="oJ3E4rCQZsHQg811ANoI-32" target="oJ3E4rCQZsHQg811ANoI-27">
          <mxGeometry relative="1" as="geometry">
            <Array as="points">
              <mxPoint x="-1020" y="1100" />
              <mxPoint x="-1020" y="372" />
              <mxPoint x="-501" y="372" />
            </Array>
          </mxGeometry>
        </mxCell>
        <mxCell id="f5wrERzETFn6Pyd23jyl-22" value="Không" style="edgeLabel;html=1;align=center;verticalAlign=middle;resizable=0;points=[];" vertex="1" connectable="0" parent="f5wrERzETFn6Pyd23jyl-21">
          <mxGeometry x="-0.8994" y="-5" relative="1" as="geometry">
            <mxPoint x="-1" as="offset" />
          </mxGeometry>
        </mxCell>
        <mxCell id="oJ3E4rCQZsHQg811ANoI-32" value="Thoát" style="strokeWidth=2;html=1;shape=mxgraph.flowchart.decision;whiteSpace=wrap;" parent="1" vertex="1">
          <mxGeometry x="-541.23" y="1059.5" width="85" height="80" as="geometry" />
        </mxCell>
        <mxCell id="oJ3E4rCQZsHQg811ANoI-34" style="edgeStyle=orthogonalEdgeStyle;rounded=0;orthogonalLoop=1;jettySize=auto;html=1;entryX=0;entryY=0.5;entryDx=0;entryDy=0;entryPerimeter=0;" parent="1" source="oJ3E4rCQZsHQg811ANoI-33" target="oJ3E4rCQZsHQg811ANoI-30" edge="1">
          <mxGeometry relative="1" as="geometry">
            <mxPoint x="-591.06" y="956.5" as="targetPoint" />
            <Array as="points">
              <mxPoint x="-200" y="1047" />
              <mxPoint x="-590" y="1047" />
              <mxPoint x="-590" y="970" />
            </Array>
          </mxGeometry>
        </mxCell>
        <mxCell id="f5wrERzETFn6Pyd23jyl-6" value="Có" style="edgeLabel;html=1;align=center;verticalAlign=middle;resizable=0;points=[];" vertex="1" connectable="0" parent="oJ3E4rCQZsHQg811ANoI-34">
          <mxGeometry x="-0.6704" y="-4" relative="1" as="geometry">
            <mxPoint as="offset" />
          </mxGeometry>
        </mxCell>
        <mxCell id="j7GnpJIxGhJe8ZzKr4eX-4" style="edgeStyle=orthogonalEdgeStyle;rounded=0;orthogonalLoop=1;jettySize=auto;html=1;" parent="1" source="oJ3E4rCQZsHQg811ANoI-33" target="j7GnpJIxGhJe8ZzKr4eX-2" edge="1">
          <mxGeometry relative="1" as="geometry" />
        </mxCell>
        <mxCell id="f5wrERzETFn6Pyd23jyl-5" value="Không" style="edgeLabel;html=1;align=center;verticalAlign=middle;resizable=0;points=[];" vertex="1" connectable="0" parent="j7GnpJIxGhJe8ZzKr4eX-4">
          <mxGeometry x="-0.6317" y="5" relative="1" as="geometry">
            <mxPoint x="1" as="offset" />
          </mxGeometry>
        </mxCell>
        <mxCell id="oJ3E4rCQZsHQg811ANoI-33" value="Lỗi" style="strokeWidth=2;html=1;shape=mxgraph.flowchart.decision;whiteSpace=wrap;" parent="1" vertex="1">
          <mxGeometry x="-240" y="929.5" width="80" height="80" as="geometry" />
        </mxCell>
        <mxCell id="oJ3E4rCQZsHQg811ANoI-35" value="Kết thúc chương trình" style="strokeWidth=2;html=1;shape=mxgraph.flowchart.terminator;whiteSpace=wrap;" parent="1" vertex="1">
          <mxGeometry x="-391.06" y="1069.5" width="100" height="60" as="geometry" />
        </mxCell>
        <mxCell id="VBR34R2BidAj_h5bLNep-2" style="edgeStyle=orthogonalEdgeStyle;rounded=0;orthogonalLoop=1;jettySize=auto;html=1;entryX=0;entryY=0.5;entryDx=0;entryDy=0;" parent="1" source="oJ3E4rCQZsHQg811ANoI-37" target="oJ3E4rCQZsHQg811ANoI-38" edge="1">
          <mxGeometry relative="1" as="geometry" />
        </mxCell>
        <mxCell id="oJ3E4rCQZsHQg811ANoI-37" value="Luồng tạo nhân vật" style="rounded=1;whiteSpace=wrap;html=1;absoluteArcSize=1;arcSize=14;strokeWidth=2;" parent="1" vertex="1">
          <mxGeometry x="-390" y="824.5" width="90" height="70" as="geometry" />
        </mxCell>
        <mxCell id="j7GnpJIxGhJe8ZzKr4eX-3" style="edgeStyle=orthogonalEdgeStyle;rounded=0;orthogonalLoop=1;jettySize=auto;html=1;" parent="1" source="oJ3E4rCQZsHQg811ANoI-38" target="j7GnpJIxGhJe8ZzKr4eX-2" edge="1">
          <mxGeometry relative="1" as="geometry" />
        </mxCell>
        <mxCell id="oJ3E4rCQZsHQg811ANoI-38" value="Luồng lưu game" style="rounded=1;whiteSpace=wrap;html=1;absoluteArcSize=1;arcSize=14;strokeWidth=2;" parent="1" vertex="1">
          <mxGeometry x="-240" y="824.5" width="100" height="70" as="geometry" />
        </mxCell>
        <mxCell id="oJ3E4rCQZsHQg811ANoI-129" style="edgeStyle=orthogonalEdgeStyle;rounded=0;orthogonalLoop=1;jettySize=auto;html=1;" parent="1" source="oJ3E4rCQZsHQg811ANoI-40" target="oJ3E4rCQZsHQg811ANoI-42" edge="1">
          <mxGeometry relative="1" as="geometry" />
        </mxCell>
        <mxCell id="j7GnpJIxGhJe8ZzKr4eX-14" value="Có" style="edgeLabel;html=1;align=center;verticalAlign=middle;resizable=0;points=[];" parent="oJ3E4rCQZsHQg811ANoI-129" vertex="1" connectable="0">
          <mxGeometry x="-0.3333" y="7" relative="1" as="geometry">
            <mxPoint as="offset" />
          </mxGeometry>
        </mxCell>
        <mxCell id="oJ3E4rCQZsHQg811ANoI-40" value="Map khởi đầu" style="strokeWidth=2;html=1;shape=mxgraph.flowchart.decision;whiteSpace=wrap;" parent="1" vertex="1">
          <mxGeometry x="760" y="880" width="100" height="100" as="geometry" />
        </mxCell>
        <mxCell id="oJ3E4rCQZsHQg811ANoI-145" style="edgeStyle=orthogonalEdgeStyle;rounded=0;orthogonalLoop=1;jettySize=auto;html=1;" parent="1" source="oJ3E4rCQZsHQg811ANoI-42" target="oJ3E4rCQZsHQg811ANoI-79" edge="1">
          <mxGeometry relative="1" as="geometry" />
        </mxCell>
        <mxCell id="f5wrERzETFn6Pyd23jyl-26" value="Có" style="edgeLabel;html=1;align=center;verticalAlign=middle;resizable=0;points=[];" vertex="1" connectable="0" parent="oJ3E4rCQZsHQg811ANoI-145">
          <mxGeometry x="-0.3333" relative="1" as="geometry">
            <mxPoint as="offset" />
          </mxGeometry>
        </mxCell>
        <mxCell id="oJ3E4rCQZsHQg811ANoI-42" value="Shop" style="strokeWidth=2;html=1;shape=mxgraph.flowchart.decision;whiteSpace=wrap;" parent="1" vertex="1">
          <mxGeometry x="760" y="1020" width="100" height="100" as="geometry" />
        </mxCell>
        <mxCell id="oJ3E4rCQZsHQg811ANoI-146" style="edgeStyle=orthogonalEdgeStyle;rounded=0;orthogonalLoop=1;jettySize=auto;html=1;" parent="1" source="oJ3E4rCQZsHQg811ANoI-43" target="oJ3E4rCQZsHQg811ANoI-80" edge="1">
          <mxGeometry relative="1" as="geometry" />
        </mxCell>
        <mxCell id="f5wrERzETFn6Pyd23jyl-28" value="Có" style="edgeLabel;html=1;align=center;verticalAlign=middle;resizable=0;points=[];" vertex="1" connectable="0" parent="oJ3E4rCQZsHQg811ANoI-146">
          <mxGeometry x="0.1259" y="-1" relative="1" as="geometry">
            <mxPoint as="offset" />
          </mxGeometry>
        </mxCell>
        <mxCell id="oJ3E4rCQZsHQg811ANoI-43" value="Di chuyển" style="strokeWidth=2;html=1;shape=mxgraph.flowchart.decision;whiteSpace=wrap;" parent="1" vertex="1">
          <mxGeometry x="760" y="1160" width="100" height="100" as="geometry" />
        </mxCell>
        <mxCell id="oJ3E4rCQZsHQg811ANoI-137" style="edgeStyle=orthogonalEdgeStyle;rounded=0;orthogonalLoop=1;jettySize=auto;html=1;" parent="1" source="oJ3E4rCQZsHQg811ANoI-44" target="oJ3E4rCQZsHQg811ANoI-83" edge="1">
          <mxGeometry relative="1" as="geometry" />
        </mxCell>
        <mxCell id="f5wrERzETFn6Pyd23jyl-30" value="Có" style="edgeLabel;html=1;align=center;verticalAlign=middle;resizable=0;points=[];" vertex="1" connectable="0" parent="oJ3E4rCQZsHQg811ANoI-137">
          <mxGeometry x="-0.2035" relative="1" as="geometry">
            <mxPoint as="offset" />
          </mxGeometry>
        </mxCell>
        <mxCell id="oJ3E4rCQZsHQg811ANoI-44" value="Huấn luyện" style="strokeWidth=2;html=1;shape=mxgraph.flowchart.decision;whiteSpace=wrap;" parent="1" vertex="1">
          <mxGeometry x="760" y="1400" width="100" height="100" as="geometry" />
        </mxCell>
        <mxCell id="oJ3E4rCQZsHQg811ANoI-135" style="edgeStyle=orthogonalEdgeStyle;rounded=0;orthogonalLoop=1;jettySize=auto;html=1;" parent="1" source="oJ3E4rCQZsHQg811ANoI-45" target="oJ3E4rCQZsHQg811ANoI-81" edge="1">
          <mxGeometry relative="1" as="geometry" />
        </mxCell>
        <mxCell id="f5wrERzETFn6Pyd23jyl-32" value="Có" style="edgeLabel;html=1;align=center;verticalAlign=middle;resizable=0;points=[];" vertex="1" connectable="0" parent="oJ3E4rCQZsHQg811ANoI-135">
          <mxGeometry x="-0.3481" y="-1" relative="1" as="geometry">
            <mxPoint as="offset" />
          </mxGeometry>
        </mxCell>
        <mxCell id="oJ3E4rCQZsHQg811ANoI-45" value="Nghỉ ngơi" style="strokeWidth=2;html=1;shape=mxgraph.flowchart.decision;whiteSpace=wrap;" parent="1" vertex="1">
          <mxGeometry x="760" y="1530" width="100" height="100" as="geometry" />
        </mxCell>
        <mxCell id="oJ3E4rCQZsHQg811ANoI-123" style="edgeStyle=orthogonalEdgeStyle;rounded=0;orthogonalLoop=1;jettySize=auto;html=1;" parent="1" source="oJ3E4rCQZsHQg811ANoI-46" target="oJ3E4rCQZsHQg811ANoI-66" edge="1">
          <mxGeometry relative="1" as="geometry" />
        </mxCell>
        <mxCell id="f5wrERzETFn6Pyd23jyl-45" style="edgeStyle=orthogonalEdgeStyle;rounded=0;orthogonalLoop=1;jettySize=auto;html=1;" edge="1" parent="1" source="oJ3E4rCQZsHQg811ANoI-46" target="oJ3E4rCQZsHQg811ANoI-47">
          <mxGeometry relative="1" as="geometry" />
        </mxCell>
        <mxCell id="f5wrERzETFn6Pyd23jyl-46" value="Không" style="edgeLabel;html=1;align=center;verticalAlign=middle;resizable=0;points=[];" vertex="1" connectable="0" parent="f5wrERzETFn6Pyd23jyl-45">
          <mxGeometry x="-0.0971" y="-1" relative="1" as="geometry">
            <mxPoint as="offset" />
          </mxGeometry>
        </mxCell>
        <mxCell id="oJ3E4rCQZsHQg811ANoI-46" value="Khám phá" style="strokeWidth=2;html=1;shape=mxgraph.flowchart.decision;whiteSpace=wrap;" parent="1" vertex="1">
          <mxGeometry x="1050" y="880" width="100" height="100" as="geometry" />
        </mxCell>
        <mxCell id="oJ3E4rCQZsHQg811ANoI-125" style="edgeStyle=orthogonalEdgeStyle;rounded=0;orthogonalLoop=1;jettySize=auto;html=1;" parent="1" source="oJ3E4rCQZsHQg811ANoI-47" target="oJ3E4rCQZsHQg811ANoI-48" edge="1">
          <mxGeometry relative="1" as="geometry" />
        </mxCell>
        <mxCell id="f5wrERzETFn6Pyd23jyl-47" value="Không" style="edgeLabel;html=1;align=center;verticalAlign=middle;resizable=0;points=[];" vertex="1" connectable="0" parent="oJ3E4rCQZsHQg811ANoI-125">
          <mxGeometry x="-0.3324" y="3" relative="1" as="geometry">
            <mxPoint as="offset" />
          </mxGeometry>
        </mxCell>
        <mxCell id="oJ3E4rCQZsHQg811ANoI-144" style="edgeStyle=orthogonalEdgeStyle;rounded=0;orthogonalLoop=1;jettySize=auto;html=1;" parent="1" source="oJ3E4rCQZsHQg811ANoI-47" target="oJ3E4rCQZsHQg811ANoI-68" edge="1">
          <mxGeometry relative="1" as="geometry" />
        </mxCell>
        <mxCell id="oJ3E4rCQZsHQg811ANoI-47" value="Di chuyển" style="strokeWidth=2;html=1;shape=mxgraph.flowchart.decision;whiteSpace=wrap;" parent="1" vertex="1">
          <mxGeometry x="1050" y="1020" width="100" height="100" as="geometry" />
        </mxCell>
        <mxCell id="oJ3E4rCQZsHQg811ANoI-143" style="edgeStyle=orthogonalEdgeStyle;rounded=0;orthogonalLoop=1;jettySize=auto;html=1;" parent="1" source="oJ3E4rCQZsHQg811ANoI-48" target="oJ3E4rCQZsHQg811ANoI-78" edge="1">
          <mxGeometry relative="1" as="geometry" />
        </mxCell>
        <mxCell id="oJ3E4rCQZsHQg811ANoI-48" value="Biến về" style="strokeWidth=2;html=1;shape=mxgraph.flowchart.decision;whiteSpace=wrap;" parent="1" vertex="1">
          <mxGeometry x="1050" y="1160" width="100" height="100" as="geometry" />
        </mxCell>
        <mxCell id="oJ3E4rCQZsHQg811ANoI-98" style="edgeStyle=orthogonalEdgeStyle;rounded=0;orthogonalLoop=1;jettySize=auto;html=1;entryX=0.5;entryY=0;entryDx=0;entryDy=0;entryPerimeter=0;" parent="1" source="oJ3E4rCQZsHQg811ANoI-49" target="oJ3E4rCQZsHQg811ANoI-52" edge="1">
          <mxGeometry relative="1" as="geometry">
            <mxPoint x="1185" y="295" as="targetPoint" />
          </mxGeometry>
        </mxCell>
        <mxCell id="oJ3E4rCQZsHQg811ANoI-100" style="edgeStyle=orthogonalEdgeStyle;rounded=0;orthogonalLoop=1;jettySize=auto;html=1;" parent="1" source="oJ3E4rCQZsHQg811ANoI-49" target="oJ3E4rCQZsHQg811ANoI-53" edge="1">
          <mxGeometry relative="1" as="geometry" />
        </mxCell>
        <mxCell id="oJ3E4rCQZsHQg811ANoI-49" value="Sự kiện combat" style="strokeWidth=2;html=1;shape=mxgraph.flowchart.decision;whiteSpace=wrap;" parent="1" vertex="1">
          <mxGeometry x="1135" y="155" width="100" height="100" as="geometry" />
        </mxCell>
        <mxCell id="oJ3E4rCQZsHQg811ANoI-97" style="edgeStyle=orthogonalEdgeStyle;rounded=0;orthogonalLoop=1;jettySize=auto;html=1;" parent="1" source="oJ3E4rCQZsHQg811ANoI-50" target="oJ3E4rCQZsHQg811ANoI-49" edge="1">
          <mxGeometry relative="1" as="geometry" />
        </mxCell>
        <mxCell id="oJ3E4rCQZsHQg811ANoI-50" value="Chọn tỉ lệ ra các sự kiện" style="rounded=1;whiteSpace=wrap;html=1;absoluteArcSize=1;arcSize=14;strokeWidth=2;" parent="1" vertex="1">
          <mxGeometry x="1140" y="20" width="90" height="90" as="geometry" />
        </mxCell>
        <mxCell id="oJ3E4rCQZsHQg811ANoI-106" style="edgeStyle=orthogonalEdgeStyle;rounded=0;orthogonalLoop=1;jettySize=auto;html=1;" parent="1" source="oJ3E4rCQZsHQg811ANoI-52" target="oJ3E4rCQZsHQg811ANoI-65" edge="1">
          <mxGeometry relative="1" as="geometry" />
        </mxCell>
        <mxCell id="oJ3E4rCQZsHQg811ANoI-52" value="Sự kiện cộng chỉ số" style="strokeWidth=2;html=1;shape=mxgraph.flowchart.decision;whiteSpace=wrap;" parent="1" vertex="1">
          <mxGeometry x="1135" y="415" width="100" height="100" as="geometry" />
        </mxCell>
        <mxCell id="oJ3E4rCQZsHQg811ANoI-101" style="edgeStyle=orthogonalEdgeStyle;rounded=0;orthogonalLoop=1;jettySize=auto;html=1;" parent="1" source="oJ3E4rCQZsHQg811ANoI-53" target="oJ3E4rCQZsHQg811ANoI-54" edge="1">
          <mxGeometry relative="1" as="geometry" />
        </mxCell>
        <mxCell id="oJ3E4rCQZsHQg811ANoI-53" value="Luồng combat" style="rounded=1;whiteSpace=wrap;html=1;absoluteArcSize=1;arcSize=14;strokeWidth=2;" parent="1" vertex="1">
          <mxGeometry x="1290" y="160" width="90" height="90" as="geometry" />
        </mxCell>
        <mxCell id="oJ3E4rCQZsHQg811ANoI-102" style="edgeStyle=orthogonalEdgeStyle;rounded=0;orthogonalLoop=1;jettySize=auto;html=1;" parent="1" source="oJ3E4rCQZsHQg811ANoI-54" target="oJ3E4rCQZsHQg811ANoI-55" edge="1">
          <mxGeometry relative="1" as="geometry" />
        </mxCell>
        <mxCell id="oJ3E4rCQZsHQg811ANoI-103" style="edgeStyle=orthogonalEdgeStyle;rounded=0;orthogonalLoop=1;jettySize=auto;html=1;" parent="1" source="oJ3E4rCQZsHQg811ANoI-54" target="oJ3E4rCQZsHQg811ANoI-74" edge="1">
          <mxGeometry relative="1" as="geometry" />
        </mxCell>
        <mxCell id="oJ3E4rCQZsHQg811ANoI-54" value="Thắng/ngủm" style="strokeWidth=2;html=1;shape=mxgraph.flowchart.decision;whiteSpace=wrap;" parent="1" vertex="1">
          <mxGeometry x="1430" y="155" width="100" height="100" as="geometry" />
        </mxCell>
        <mxCell id="oJ3E4rCQZsHQg811ANoI-110" style="edgeStyle=orthogonalEdgeStyle;rounded=0;orthogonalLoop=1;jettySize=auto;html=1;entryX=1;entryY=0.5;entryDx=0;entryDy=0;" parent="1" source="oJ3E4rCQZsHQg811ANoI-55" target="oJ3E4rCQZsHQg811ANoI-50" edge="1">
          <mxGeometry relative="1" as="geometry">
            <mxPoint x="1230" y="60" as="targetPoint" />
            <Array as="points">
              <mxPoint x="1770" y="205" />
              <mxPoint x="1770" y="65" />
            </Array>
          </mxGeometry>
        </mxCell>
        <mxCell id="oJ3E4rCQZsHQg811ANoI-55" value="Cộng stat" style="rounded=1;whiteSpace=wrap;html=1;absoluteArcSize=1;arcSize=14;strokeWidth=2;" parent="1" vertex="1">
          <mxGeometry x="1590" y="160" width="90" height="90" as="geometry" />
        </mxCell>
        <mxCell id="oJ3E4rCQZsHQg811ANoI-56" value="Config có tùy chọn save game khi combat hoặc không" style="text;html=1;align=center;verticalAlign=middle;whiteSpace=wrap;rounded=0;" parent="1" vertex="1">
          <mxGeometry x="-917.5" y="963" width="140" height="30" as="geometry" />
        </mxCell>
        <mxCell id="oJ3E4rCQZsHQg811ANoI-134" style="edgeStyle=orthogonalEdgeStyle;rounded=0;orthogonalLoop=1;jettySize=auto;html=1;entryX=0;entryY=0.5;entryDx=0;entryDy=0;" parent="1" source="oJ3E4rCQZsHQg811ANoI-57" target="oJ3E4rCQZsHQg811ANoI-90" edge="1">
          <mxGeometry relative="1" as="geometry" />
        </mxCell>
        <mxCell id="f5wrERzETFn6Pyd23jyl-34" value="Có" style="edgeLabel;html=1;align=center;verticalAlign=middle;resizable=0;points=[];" vertex="1" connectable="0" parent="oJ3E4rCQZsHQg811ANoI-134">
          <mxGeometry x="0.3333" relative="1" as="geometry">
            <mxPoint as="offset" />
          </mxGeometry>
        </mxCell>
        <mxCell id="f5wrERzETFn6Pyd23jyl-122" style="edgeStyle=orthogonalEdgeStyle;rounded=0;orthogonalLoop=1;jettySize=auto;html=1;entryX=0;entryY=0.5;entryDx=0;entryDy=0;" edge="1" parent="1" source="oJ3E4rCQZsHQg811ANoI-57" target="f5wrERzETFn6Pyd23jyl-117">
          <mxGeometry relative="1" as="geometry">
            <Array as="points">
              <mxPoint x="660" y="1700" />
              <mxPoint x="660" y="693" />
            </Array>
          </mxGeometry>
        </mxCell>
        <mxCell id="f5wrERzETFn6Pyd23jyl-123" value="Không" style="edgeLabel;html=1;align=center;verticalAlign=middle;resizable=0;points=[];" vertex="1" connectable="0" parent="f5wrERzETFn6Pyd23jyl-122">
          <mxGeometry x="-0.8765" y="-5" relative="1" as="geometry">
            <mxPoint as="offset" />
          </mxGeometry>
        </mxCell>
        <mxCell id="oJ3E4rCQZsHQg811ANoI-57" value="Thoát" style="strokeWidth=2;html=1;shape=mxgraph.flowchart.decision;whiteSpace=wrap;" parent="1" vertex="1">
          <mxGeometry x="760" y="1650" width="100" height="100" as="geometry" />
        </mxCell>
        <mxCell id="j7GnpJIxGhJe8ZzKr4eX-9" style="edgeStyle=orthogonalEdgeStyle;rounded=0;orthogonalLoop=1;jettySize=auto;html=1;" parent="1" source="oJ3E4rCQZsHQg811ANoI-58" target="j7GnpJIxGhJe8ZzKr4eX-8" edge="1">
          <mxGeometry relative="1" as="geometry" />
        </mxCell>
        <mxCell id="oJ3E4rCQZsHQg811ANoI-58" value="Luồng main menu" style="rounded=1;whiteSpace=wrap;html=1;absoluteArcSize=1;arcSize=14;strokeWidth=2;" parent="1" vertex="1">
          <mxGeometry x="630" y="562" width="110" height="70" as="geometry" />
        </mxCell>
        <mxCell id="oJ3E4rCQZsHQg811ANoI-60" value="Game đang chạy" style="strokeWidth=2;html=1;shape=mxgraph.flowchart.decision;whiteSpace=wrap;" parent="1" vertex="1">
          <mxGeometry x="-543.9" y="482" width="90.34" height="80" as="geometry" />
        </mxCell>
        <mxCell id="f5wrERzETFn6Pyd23jyl-2" style="edgeStyle=orthogonalEdgeStyle;rounded=0;orthogonalLoop=1;jettySize=auto;html=1;entryX=1;entryY=0.5;entryDx=0;entryDy=0;" edge="1" parent="1" source="oJ3E4rCQZsHQg811ANoI-61" target="f5wrERzETFn6Pyd23jyl-1">
          <mxGeometry relative="1" as="geometry" />
        </mxCell>
        <mxCell id="f5wrERzETFn6Pyd23jyl-14" value="Có" style="edgeLabel;html=1;align=center;verticalAlign=middle;resizable=0;points=[];" vertex="1" connectable="0" parent="f5wrERzETFn6Pyd23jyl-2">
          <mxGeometry x="-0.1353" y="-2" relative="1" as="geometry">
            <mxPoint as="offset" />
          </mxGeometry>
        </mxCell>
        <mxCell id="oJ3E4rCQZsHQg811ANoI-61" value="Save game" style="strokeWidth=2;html=1;shape=mxgraph.flowchart.decision;whiteSpace=wrap;" parent="1" vertex="1">
          <mxGeometry x="-790" y="642" width="80" height="80" as="geometry" />
        </mxCell>
        <mxCell id="f5wrERzETFn6Pyd23jyl-12" style="edgeStyle=orthogonalEdgeStyle;rounded=0;orthogonalLoop=1;jettySize=auto;html=1;entryX=1;entryY=0.5;entryDx=0;entryDy=0;" edge="1" parent="1" source="oJ3E4rCQZsHQg811ANoI-63" target="f5wrERzETFn6Pyd23jyl-11">
          <mxGeometry relative="1" as="geometry" />
        </mxCell>
        <mxCell id="f5wrERzETFn6Pyd23jyl-15" value="Có" style="edgeLabel;html=1;align=center;verticalAlign=middle;resizable=0;points=[];" vertex="1" connectable="0" parent="f5wrERzETFn6Pyd23jyl-12">
          <mxGeometry x="-0.1353" y="-1" relative="1" as="geometry">
            <mxPoint as="offset" />
          </mxGeometry>
        </mxCell>
        <mxCell id="oJ3E4rCQZsHQg811ANoI-63" value="Xem chỉ số" style="strokeWidth=2;html=1;shape=mxgraph.flowchart.decision;whiteSpace=wrap;" parent="1" vertex="1">
          <mxGeometry x="-790" y="742" width="80" height="80" as="geometry" />
        </mxCell>
        <mxCell id="oJ3E4rCQZsHQg811ANoI-107" style="edgeStyle=orthogonalEdgeStyle;rounded=0;orthogonalLoop=1;jettySize=auto;html=1;" parent="1" source="oJ3E4rCQZsHQg811ANoI-65" target="oJ3E4rCQZsHQg811ANoI-75" edge="1">
          <mxGeometry relative="1" as="geometry" />
        </mxCell>
        <mxCell id="oJ3E4rCQZsHQg811ANoI-65" value="Luồng side event" style="rounded=1;whiteSpace=wrap;html=1;absoluteArcSize=1;arcSize=14;strokeWidth=2;" parent="1" vertex="1">
          <mxGeometry x="1290" y="425" width="90" height="80" as="geometry" />
        </mxCell>
        <mxCell id="oJ3E4rCQZsHQg811ANoI-66" value="Luông khám phá" style="rounded=1;whiteSpace=wrap;html=1;absoluteArcSize=1;arcSize=14;strokeWidth=2;" parent="1" vertex="1">
          <mxGeometry x="1220" y="880" width="100" height="100" as="geometry" />
        </mxCell>
        <mxCell id="oJ3E4rCQZsHQg811ANoI-68" value="Luồng di chuyển" style="rounded=1;whiteSpace=wrap;html=1;absoluteArcSize=1;arcSize=14;strokeWidth=2;" parent="1" vertex="1">
          <mxGeometry x="1215" y="1020" width="100" height="100" as="geometry" />
        </mxCell>
        <mxCell id="oJ3E4rCQZsHQg811ANoI-72" value="Luồng load game" style="rounded=1;whiteSpace=wrap;html=1;absoluteArcSize=1;arcSize=14;strokeWidth=2;" parent="1" vertex="1">
          <mxGeometry x="-391.06" y="933" width="91.06" height="73" as="geometry" />
        </mxCell>
        <mxCell id="oJ3E4rCQZsHQg811ANoI-74" value="Initialize = 0. Thoát." style="rounded=1;whiteSpace=wrap;html=1;absoluteArcSize=1;arcSize=14;strokeWidth=2;" parent="1" vertex="1">
          <mxGeometry x="1434.47" y="290" width="91.06" height="73" as="geometry" />
        </mxCell>
        <mxCell id="oJ3E4rCQZsHQg811ANoI-108" style="edgeStyle=orthogonalEdgeStyle;rounded=0;orthogonalLoop=1;jettySize=auto;html=1;" parent="1" source="oJ3E4rCQZsHQg811ANoI-75" target="oJ3E4rCQZsHQg811ANoI-76" edge="1">
          <mxGeometry relative="1" as="geometry" />
        </mxCell>
        <mxCell id="f5wrERzETFn6Pyd23jyl-236" style="edgeStyle=orthogonalEdgeStyle;rounded=0;orthogonalLoop=1;jettySize=auto;html=1;entryX=0;entryY=0.5;entryDx=0;entryDy=0;" edge="1" parent="1" source="oJ3E4rCQZsHQg811ANoI-75" target="f5wrERzETFn6Pyd23jyl-234">
          <mxGeometry relative="1" as="geometry">
            <Array as="points">
              <mxPoint x="1490" y="570" />
              <mxPoint x="1585" y="570" />
            </Array>
          </mxGeometry>
        </mxCell>
        <mxCell id="oJ3E4rCQZsHQg811ANoI-75" value="Thành công" style="strokeWidth=2;html=1;shape=mxgraph.flowchart.decision;whiteSpace=wrap;" parent="1" vertex="1">
          <mxGeometry x="1440" y="415" width="100" height="100" as="geometry" />
        </mxCell>
        <mxCell id="oJ3E4rCQZsHQg811ANoI-76" value="Cộng stat/ đồ/vàng" style="rounded=1;whiteSpace=wrap;html=1;absoluteArcSize=1;arcSize=14;strokeWidth=2;" parent="1" vertex="1">
          <mxGeometry x="1585" y="420" width="90" height="90" as="geometry" />
        </mxCell>
        <mxCell id="oJ3E4rCQZsHQg811ANoI-78" value="+1 buổi + luồng di chuyển" style="rounded=1;whiteSpace=wrap;html=1;absoluteArcSize=1;arcSize=14;strokeWidth=2;" parent="1" vertex="1">
          <mxGeometry x="1220" y="1160" width="100" height="100" as="geometry" />
        </mxCell>
        <mxCell id="oJ3E4rCQZsHQg811ANoI-79" value="Luồng shop" style="rounded=1;whiteSpace=wrap;html=1;absoluteArcSize=1;arcSize=14;strokeWidth=2;" parent="1" vertex="1">
          <mxGeometry x="900" y="1025" width="90" height="90" as="geometry" />
        </mxCell>
        <mxCell id="oJ3E4rCQZsHQg811ANoI-80" value="Luồng di chuyển" style="rounded=1;whiteSpace=wrap;html=1;absoluteArcSize=1;arcSize=14;strokeWidth=2;" parent="1" vertex="1">
          <mxGeometry x="895" y="1160" width="100" height="100" as="geometry" />
        </mxCell>
        <mxCell id="oJ3E4rCQZsHQg811ANoI-81" value="+1 buổi + Hồi đầy hp" style="rounded=1;whiteSpace=wrap;html=1;absoluteArcSize=1;arcSize=14;strokeWidth=2;" parent="1" vertex="1">
          <mxGeometry x="895" y="1530" width="100" height="100" as="geometry" />
        </mxCell>
        <mxCell id="oJ3E4rCQZsHQg811ANoI-138" style="edgeStyle=orthogonalEdgeStyle;rounded=0;orthogonalLoop=1;jettySize=auto;html=1;" parent="1" source="oJ3E4rCQZsHQg811ANoI-83" target="oJ3E4rCQZsHQg811ANoI-84" edge="1">
          <mxGeometry relative="1" as="geometry" />
        </mxCell>
        <mxCell id="f5wrERzETFn6Pyd23jyl-37" value="Không" style="edgeLabel;html=1;align=center;verticalAlign=middle;resizable=0;points=[];" vertex="1" connectable="0" parent="oJ3E4rCQZsHQg811ANoI-138">
          <mxGeometry x="-0.1388" y="1" relative="1" as="geometry">
            <mxPoint as="offset" />
          </mxGeometry>
        </mxCell>
        <mxCell id="oJ3E4rCQZsHQg811ANoI-140" style="edgeStyle=orthogonalEdgeStyle;rounded=0;orthogonalLoop=1;jettySize=auto;html=1;" parent="1" source="oJ3E4rCQZsHQg811ANoI-83" target="oJ3E4rCQZsHQg811ANoI-86" edge="1">
          <mxGeometry relative="1" as="geometry" />
        </mxCell>
        <mxCell id="f5wrERzETFn6Pyd23jyl-35" value="Có" style="edgeLabel;html=1;align=center;verticalAlign=middle;resizable=0;points=[];" vertex="1" connectable="0" parent="oJ3E4rCQZsHQg811ANoI-140">
          <mxGeometry x="-0.3976" relative="1" as="geometry">
            <mxPoint as="offset" />
          </mxGeometry>
        </mxCell>
        <mxCell id="oJ3E4rCQZsHQg811ANoI-83" value="Đánh tập" style="strokeWidth=2;html=1;shape=mxgraph.flowchart.decision;whiteSpace=wrap;" parent="1" vertex="1">
          <mxGeometry x="1050" y="1400" width="100" height="100" as="geometry" />
        </mxCell>
        <mxCell id="oJ3E4rCQZsHQg811ANoI-139" style="edgeStyle=orthogonalEdgeStyle;rounded=0;orthogonalLoop=1;jettySize=auto;html=1;" parent="1" source="oJ3E4rCQZsHQg811ANoI-84" target="oJ3E4rCQZsHQg811ANoI-85" edge="1">
          <mxGeometry relative="1" as="geometry" />
        </mxCell>
        <mxCell id="f5wrERzETFn6Pyd23jyl-38" value="Không" style="edgeLabel;html=1;align=center;verticalAlign=middle;resizable=0;points=[];" vertex="1" connectable="0" parent="oJ3E4rCQZsHQg811ANoI-139">
          <mxGeometry x="-0.049" relative="1" as="geometry">
            <mxPoint as="offset" />
          </mxGeometry>
        </mxCell>
        <mxCell id="oJ3E4rCQZsHQg811ANoI-141" style="edgeStyle=orthogonalEdgeStyle;rounded=0;orthogonalLoop=1;jettySize=auto;html=1;entryX=0.5;entryY=0;entryDx=0;entryDy=0;" parent="1" source="oJ3E4rCQZsHQg811ANoI-84" target="oJ3E4rCQZsHQg811ANoI-87" edge="1">
          <mxGeometry relative="1" as="geometry" />
        </mxCell>
        <mxCell id="f5wrERzETFn6Pyd23jyl-36" value="Có" style="edgeLabel;html=1;align=center;verticalAlign=middle;resizable=0;points=[];" vertex="1" connectable="0" parent="oJ3E4rCQZsHQg811ANoI-141">
          <mxGeometry x="-0.3976" relative="1" as="geometry">
            <mxPoint as="offset" />
          </mxGeometry>
        </mxCell>
        <mxCell id="oJ3E4rCQZsHQg811ANoI-84" value="Đổi đội hình" style="strokeWidth=2;html=1;shape=mxgraph.flowchart.decision;whiteSpace=wrap;" parent="1" vertex="1">
          <mxGeometry x="1220" y="1400" width="100" height="100" as="geometry" />
        </mxCell>
        <mxCell id="f5wrERzETFn6Pyd23jyl-53" style="edgeStyle=orthogonalEdgeStyle;rounded=0;orthogonalLoop=1;jettySize=auto;html=1;" edge="1" parent="1" source="oJ3E4rCQZsHQg811ANoI-85" target="oJ3E4rCQZsHQg811ANoI-44">
          <mxGeometry relative="1" as="geometry">
            <Array as="points">
              <mxPoint x="1440" y="1760" />
              <mxPoint x="740" y="1760" />
              <mxPoint x="740" y="1450" />
            </Array>
          </mxGeometry>
        </mxCell>
        <mxCell id="f5wrERzETFn6Pyd23jyl-54" value="Không" style="edgeLabel;html=1;align=center;verticalAlign=middle;resizable=0;points=[];" vertex="1" connectable="0" parent="f5wrERzETFn6Pyd23jyl-53">
          <mxGeometry x="-0.9629" y="-1" relative="1" as="geometry">
            <mxPoint as="offset" />
          </mxGeometry>
        </mxCell>
        <mxCell id="f5wrERzETFn6Pyd23jyl-120" style="edgeStyle=orthogonalEdgeStyle;rounded=0;orthogonalLoop=1;jettySize=auto;html=1;entryX=1;entryY=0.5;entryDx=0;entryDy=0;" edge="1" parent="1" source="oJ3E4rCQZsHQg811ANoI-85" target="f5wrERzETFn6Pyd23jyl-117">
          <mxGeometry relative="1" as="geometry">
            <Array as="points">
              <mxPoint x="1440" y="692" />
            </Array>
          </mxGeometry>
        </mxCell>
        <mxCell id="f5wrERzETFn6Pyd23jyl-121" value="Có" style="edgeLabel;html=1;align=center;verticalAlign=middle;resizable=0;points=[];" vertex="1" connectable="0" parent="f5wrERzETFn6Pyd23jyl-120">
          <mxGeometry x="-0.9633" relative="1" as="geometry">
            <mxPoint y="14" as="offset" />
          </mxGeometry>
        </mxCell>
        <mxCell id="oJ3E4rCQZsHQg811ANoI-85" value="Thoát" style="strokeWidth=2;html=1;shape=mxgraph.flowchart.decision;whiteSpace=wrap;" parent="1" vertex="1">
          <mxGeometry x="1390" y="1400" width="100" height="100" as="geometry" />
        </mxCell>
        <mxCell id="oJ3E4rCQZsHQg811ANoI-86" value="Luồng combat" style="rounded=1;whiteSpace=wrap;html=1;absoluteArcSize=1;arcSize=14;strokeWidth=2;" parent="1" vertex="1">
          <mxGeometry x="1055" y="1535" width="90" height="90" as="geometry" />
        </mxCell>
        <mxCell id="oJ3E4rCQZsHQg811ANoI-87" value="Luồng tạo nhân vật" style="rounded=1;whiteSpace=wrap;html=1;absoluteArcSize=1;arcSize=14;strokeWidth=2;" parent="1" vertex="1">
          <mxGeometry x="1222.5" y="1535" width="95" height="90" as="geometry" />
        </mxCell>
        <mxCell id="oJ3E4rCQZsHQg811ANoI-142" style="edgeStyle=orthogonalEdgeStyle;rounded=0;orthogonalLoop=1;jettySize=auto;html=1;" parent="1" source="oJ3E4rCQZsHQg811ANoI-88" target="oJ3E4rCQZsHQg811ANoI-89" edge="1">
          <mxGeometry relative="1" as="geometry" />
        </mxCell>
        <mxCell id="f5wrERzETFn6Pyd23jyl-39" value="Có" style="edgeLabel;html=1;align=center;verticalAlign=middle;resizable=0;points=[];" vertex="1" connectable="0" parent="oJ3E4rCQZsHQg811ANoI-142">
          <mxGeometry x="-0.133" relative="1" as="geometry">
            <mxPoint as="offset" />
          </mxGeometry>
        </mxCell>
        <mxCell id="f5wrERzETFn6Pyd23jyl-124" style="edgeStyle=orthogonalEdgeStyle;rounded=0;orthogonalLoop=1;jettySize=auto;html=1;entryX=1;entryY=0.5;entryDx=0;entryDy=0;exitX=0.5;exitY=1;exitDx=0;exitDy=0;exitPerimeter=0;" edge="1" parent="1" source="oJ3E4rCQZsHQg811ANoI-88" target="f5wrERzETFn6Pyd23jyl-117">
          <mxGeometry relative="1" as="geometry">
            <Array as="points">
              <mxPoint x="1440" y="1380" />
              <mxPoint x="1440" y="692" />
            </Array>
          </mxGeometry>
        </mxCell>
        <mxCell id="f5wrERzETFn6Pyd23jyl-125" value="Không" style="edgeLabel;html=1;align=center;verticalAlign=middle;resizable=0;points=[];" vertex="1" connectable="0" parent="f5wrERzETFn6Pyd23jyl-124">
          <mxGeometry x="-0.9471" y="-1" relative="1" as="geometry">
            <mxPoint as="offset" />
          </mxGeometry>
        </mxCell>
        <mxCell id="oJ3E4rCQZsHQg811ANoI-88" value="Thoát" style="strokeWidth=2;html=1;shape=mxgraph.flowchart.decision;whiteSpace=wrap;" parent="1" vertex="1">
          <mxGeometry x="1050" y="1280" width="100" height="100" as="geometry" />
        </mxCell>
        <mxCell id="oJ3E4rCQZsHQg811ANoI-89" value="Thoát" style="rounded=1;whiteSpace=wrap;html=1;absoluteArcSize=1;arcSize=14;strokeWidth=2;" parent="1" vertex="1">
          <mxGeometry x="1215" y="1295" width="110" height="70" as="geometry" />
        </mxCell>
        <mxCell id="oJ3E4rCQZsHQg811ANoI-90" value="Thoát" style="rounded=1;whiteSpace=wrap;html=1;absoluteArcSize=1;arcSize=14;strokeWidth=2;" parent="1" vertex="1">
          <mxGeometry x="890" y="1665" width="110" height="70" as="geometry" />
        </mxCell>
        <mxCell id="oJ3E4rCQZsHQg811ANoI-112" value="Có" style="text;html=1;align=center;verticalAlign=middle;whiteSpace=wrap;rounded=0;" parent="1" vertex="1">
          <mxGeometry x="1530" y="160" width="60" height="30" as="geometry" />
        </mxCell>
        <mxCell id="oJ3E4rCQZsHQg811ANoI-114" value="" style="edgeStyle=orthogonalEdgeStyle;rounded=0;orthogonalLoop=1;jettySize=auto;html=1;entryX=1;entryY=0.5;entryDx=0;entryDy=0;exitX=1;exitY=0.5;exitDx=0;exitDy=0;" parent="1" source="oJ3E4rCQZsHQg811ANoI-76" target="oJ3E4rCQZsHQg811ANoI-50" edge="1">
          <mxGeometry relative="1" as="geometry">
            <mxPoint x="1230" y="65" as="targetPoint" />
            <mxPoint x="1680" y="485" as="sourcePoint" />
            <Array as="points">
              <mxPoint x="1770" y="465" />
              <mxPoint x="1770" y="65" />
            </Array>
          </mxGeometry>
        </mxCell>
        <mxCell id="oJ3E4rCQZsHQg811ANoI-113" value="Lăp số lần theo config (md: 3 lần)" style="text;html=1;align=center;verticalAlign=middle;whiteSpace=wrap;rounded=0;" parent="1" vertex="1">
          <mxGeometry x="1390" y="30" width="150" height="30" as="geometry" />
        </mxCell>
        <mxCell id="oJ3E4rCQZsHQg811ANoI-116" value="Không" style="text;html=1;align=center;verticalAlign=middle;whiteSpace=wrap;rounded=0;" parent="1" vertex="1">
          <mxGeometry x="1470" y="250" width="60" height="30" as="geometry" />
        </mxCell>
        <mxCell id="oJ3E4rCQZsHQg811ANoI-117" value="Không" style="text;html=1;align=center;verticalAlign=middle;whiteSpace=wrap;rounded=0;" parent="1" vertex="1">
          <mxGeometry x="1510" y="542" width="60" height="30" as="geometry" />
        </mxCell>
        <mxCell id="oJ3E4rCQZsHQg811ANoI-118" value="Có" style="text;html=1;align=center;verticalAlign=middle;whiteSpace=wrap;rounded=0;" parent="1" vertex="1">
          <mxGeometry x="1525" y="442" width="60" height="30" as="geometry" />
        </mxCell>
        <mxCell id="oJ3E4rCQZsHQg811ANoI-122" style="edgeStyle=orthogonalEdgeStyle;rounded=0;orthogonalLoop=1;jettySize=auto;html=1;entryX=0;entryY=0.5;entryDx=0;entryDy=0;entryPerimeter=0;" parent="1" source="oJ3E4rCQZsHQg811ANoI-40" target="oJ3E4rCQZsHQg811ANoI-46" edge="1">
          <mxGeometry relative="1" as="geometry" />
        </mxCell>
        <mxCell id="oJ3E4rCQZsHQg811ANoI-127" style="edgeStyle=orthogonalEdgeStyle;rounded=0;orthogonalLoop=1;jettySize=auto;html=1;entryX=0.5;entryY=0;entryDx=0;entryDy=0;entryPerimeter=0;" parent="1" source="oJ3E4rCQZsHQg811ANoI-48" target="oJ3E4rCQZsHQg811ANoI-88" edge="1">
          <mxGeometry relative="1" as="geometry" />
        </mxCell>
        <mxCell id="f5wrERzETFn6Pyd23jyl-48" value="Không" style="edgeLabel;html=1;align=center;verticalAlign=middle;resizable=0;points=[];" vertex="1" connectable="0" parent="oJ3E4rCQZsHQg811ANoI-127">
          <mxGeometry x="-0.751" y="2" relative="1" as="geometry">
            <mxPoint as="offset" />
          </mxGeometry>
        </mxCell>
        <mxCell id="oJ3E4rCQZsHQg811ANoI-130" style="edgeStyle=orthogonalEdgeStyle;rounded=0;orthogonalLoop=1;jettySize=auto;html=1;entryX=0.5;entryY=0;entryDx=0;entryDy=0;entryPerimeter=0;" parent="1" source="oJ3E4rCQZsHQg811ANoI-42" target="oJ3E4rCQZsHQg811ANoI-43" edge="1">
          <mxGeometry relative="1" as="geometry" />
        </mxCell>
        <mxCell id="f5wrERzETFn6Pyd23jyl-27" value="Không" style="edgeLabel;html=1;align=center;verticalAlign=middle;resizable=0;points=[];" vertex="1" connectable="0" parent="oJ3E4rCQZsHQg811ANoI-130">
          <mxGeometry x="-0.3" y="-1" relative="1" as="geometry">
            <mxPoint as="offset" />
          </mxGeometry>
        </mxCell>
        <mxCell id="oJ3E4rCQZsHQg811ANoI-131" style="edgeStyle=orthogonalEdgeStyle;rounded=0;orthogonalLoop=1;jettySize=auto;html=1;entryX=0.5;entryY=0;entryDx=0;entryDy=0;entryPerimeter=0;" parent="1" source="oJ3E4rCQZsHQg811ANoI-43" target="oJ3E4rCQZsHQg811ANoI-44" edge="1">
          <mxGeometry relative="1" as="geometry" />
        </mxCell>
        <mxCell id="f5wrERzETFn6Pyd23jyl-29" value="Không" style="edgeLabel;html=1;align=center;verticalAlign=middle;resizable=0;points=[];" vertex="1" connectable="0" parent="oJ3E4rCQZsHQg811ANoI-131">
          <mxGeometry x="-0.1429" relative="1" as="geometry">
            <mxPoint as="offset" />
          </mxGeometry>
        </mxCell>
        <mxCell id="oJ3E4rCQZsHQg811ANoI-132" style="edgeStyle=orthogonalEdgeStyle;rounded=0;orthogonalLoop=1;jettySize=auto;html=1;entryX=0.5;entryY=0;entryDx=0;entryDy=0;entryPerimeter=0;" parent="1" source="oJ3E4rCQZsHQg811ANoI-44" target="oJ3E4rCQZsHQg811ANoI-45" edge="1">
          <mxGeometry relative="1" as="geometry" />
        </mxCell>
        <mxCell id="f5wrERzETFn6Pyd23jyl-31" value="Không" style="edgeLabel;html=1;align=center;verticalAlign=middle;resizable=0;points=[];" vertex="1" connectable="0" parent="oJ3E4rCQZsHQg811ANoI-132">
          <mxGeometry x="0.3067" relative="1" as="geometry">
            <mxPoint as="offset" />
          </mxGeometry>
        </mxCell>
        <mxCell id="oJ3E4rCQZsHQg811ANoI-133" style="edgeStyle=orthogonalEdgeStyle;rounded=0;orthogonalLoop=1;jettySize=auto;html=1;entryX=0.5;entryY=0;entryDx=0;entryDy=0;entryPerimeter=0;" parent="1" source="oJ3E4rCQZsHQg811ANoI-45" target="oJ3E4rCQZsHQg811ANoI-57" edge="1">
          <mxGeometry relative="1" as="geometry" />
        </mxCell>
        <mxCell id="f5wrERzETFn6Pyd23jyl-33" value="Không" style="edgeLabel;html=1;align=center;verticalAlign=middle;resizable=0;points=[];" vertex="1" connectable="0" parent="oJ3E4rCQZsHQg811ANoI-133">
          <mxGeometry x="0.6" relative="1" as="geometry">
            <mxPoint as="offset" />
          </mxGeometry>
        </mxCell>
        <mxCell id="oJ3E4rCQZsHQg811ANoI-147" style="edgeStyle=orthogonalEdgeStyle;rounded=0;orthogonalLoop=1;jettySize=auto;html=1;entryX=0.5;entryY=0;entryDx=0;entryDy=0;entryPerimeter=0;" parent="1" source="oJ3E4rCQZsHQg811ANoI-27" target="oJ3E4rCQZsHQg811ANoI-60" edge="1">
          <mxGeometry relative="1" as="geometry">
            <Array as="points">
              <mxPoint x="-499" y="482" />
              <mxPoint x="-499" y="482" />
            </Array>
          </mxGeometry>
        </mxCell>
        <mxCell id="oJ3E4rCQZsHQg811ANoI-148" style="edgeStyle=orthogonalEdgeStyle;rounded=0;orthogonalLoop=1;jettySize=auto;html=1;entryX=0.5;entryY=0;entryDx=0;entryDy=0;entryPerimeter=0;" parent="1" source="oJ3E4rCQZsHQg811ANoI-60" target="j7GnpJIxGhJe8ZzKr4eX-10" edge="1">
          <mxGeometry relative="1" as="geometry" />
        </mxCell>
        <mxCell id="f5wrERzETFn6Pyd23jyl-3" value="Có" style="edgeLabel;html=1;align=center;verticalAlign=middle;resizable=0;points=[];" vertex="1" connectable="0" parent="oJ3E4rCQZsHQg811ANoI-148">
          <mxGeometry x="-0.3799" y="-3" relative="1" as="geometry">
            <mxPoint x="4" y="-7" as="offset" />
          </mxGeometry>
        </mxCell>
        <mxCell id="oJ3E4rCQZsHQg811ANoI-149" style="edgeStyle=orthogonalEdgeStyle;rounded=0;orthogonalLoop=1;jettySize=auto;html=1;entryX=0.5;entryY=0;entryDx=0;entryDy=0;entryPerimeter=0;" parent="1" source="oJ3E4rCQZsHQg811ANoI-61" target="oJ3E4rCQZsHQg811ANoI-63" edge="1">
          <mxGeometry relative="1" as="geometry" />
        </mxCell>
        <mxCell id="f5wrERzETFn6Pyd23jyl-18" value="Không" style="edgeLabel;html=1;align=center;verticalAlign=middle;resizable=0;points=[];" vertex="1" connectable="0" parent="oJ3E4rCQZsHQg811ANoI-149">
          <mxGeometry x="0.5079" relative="1" as="geometry">
            <mxPoint y="1" as="offset" />
          </mxGeometry>
        </mxCell>
        <mxCell id="oJ3E4rCQZsHQg811ANoI-150" style="edgeStyle=orthogonalEdgeStyle;rounded=0;orthogonalLoop=1;jettySize=auto;html=1;entryX=0.5;entryY=0;entryDx=0;entryDy=0;entryPerimeter=0;" parent="1" source="oJ3E4rCQZsHQg811ANoI-63" target="oJ3E4rCQZsHQg811ANoI-28" edge="1">
          <mxGeometry relative="1" as="geometry" />
        </mxCell>
        <mxCell id="f5wrERzETFn6Pyd23jyl-16" value="Không" style="edgeLabel;html=1;align=center;verticalAlign=middle;resizable=0;points=[];" vertex="1" connectable="0" parent="oJ3E4rCQZsHQg811ANoI-150">
          <mxGeometry x="-0.3479" y="1" relative="1" as="geometry">
            <mxPoint as="offset" />
          </mxGeometry>
        </mxCell>
        <mxCell id="VBR34R2BidAj_h5bLNep-4" style="edgeStyle=orthogonalEdgeStyle;rounded=0;orthogonalLoop=1;jettySize=auto;html=1;entryX=0;entryY=0.5;entryDx=0;entryDy=0;entryPerimeter=0;" parent="1" source="oJ3E4rCQZsHQg811ANoI-72" target="oJ3E4rCQZsHQg811ANoI-33" edge="1">
          <mxGeometry relative="1" as="geometry" />
        </mxCell>
        <mxCell id="VBR34R2BidAj_h5bLNep-6" style="edgeStyle=orthogonalEdgeStyle;rounded=0;orthogonalLoop=1;jettySize=auto;html=1;entryX=0.5;entryY=0;entryDx=0;entryDy=0;entryPerimeter=0;" parent="1" source="oJ3E4rCQZsHQg811ANoI-30" target="oJ3E4rCQZsHQg811ANoI-32" edge="1">
          <mxGeometry relative="1" as="geometry" />
        </mxCell>
        <mxCell id="f5wrERzETFn6Pyd23jyl-20" value="Không" style="edgeLabel;html=1;align=center;verticalAlign=middle;resizable=0;points=[];" vertex="1" connectable="0" parent="VBR34R2BidAj_h5bLNep-6">
          <mxGeometry x="-0.2906" y="2" relative="1" as="geometry">
            <mxPoint as="offset" />
          </mxGeometry>
        </mxCell>
        <mxCell id="VBR34R2BidAj_h5bLNep-8" value="Luồng khám phá" style="text;html=1;align=center;verticalAlign=middle;whiteSpace=wrap;rounded=0;" parent="1" vertex="1">
          <mxGeometry x="1045" y="60" width="60" height="30" as="geometry" />
        </mxCell>
        <mxCell id="VBR34R2BidAj_h5bLNep-10" value="Luồng chọn các hành động trong map" style="text;html=1;align=center;verticalAlign=middle;whiteSpace=wrap;rounded=0;" parent="1" vertex="1">
          <mxGeometry x="855" y="890" width="85" height="30" as="geometry" />
        </mxCell>
        <mxCell id="VBR34R2BidAj_h5bLNep-11" value="Luồng main" style="text;html=1;align=center;verticalAlign=middle;whiteSpace=wrap;rounded=0;" parent="1" vertex="1">
          <mxGeometry x="560" y="530" width="60" height="30" as="geometry" />
        </mxCell>
        <mxCell id="VBR34R2BidAj_h5bLNep-12" value="Luồng file io" style="text;html=1;align=center;verticalAlign=middle;whiteSpace=wrap;rounded=0;" parent="1" vertex="1">
          <mxGeometry x="-820" y="30" width="60" height="30" as="geometry" />
        </mxCell>
        <mxCell id="f5wrERzETFn6Pyd23jyl-59" style="edgeStyle=orthogonalEdgeStyle;rounded=0;orthogonalLoop=1;jettySize=auto;html=1;entryX=0;entryY=0.5;entryDx=0;entryDy=0;" edge="1" parent="1" source="VBR34R2BidAj_h5bLNep-13" target="f5wrERzETFn6Pyd23jyl-57">
          <mxGeometry relative="1" as="geometry" />
        </mxCell>
        <mxCell id="VBR34R2BidAj_h5bLNep-13" value="Lưu game" style="rounded=1;whiteSpace=wrap;html=1;absoluteArcSize=1;arcSize=14;strokeWidth=2;" parent="1" vertex="1">
          <mxGeometry x="-750" y="50" width="90" height="70" as="geometry" />
        </mxCell>
        <mxCell id="f5wrERzETFn6Pyd23jyl-108" style="edgeStyle=orthogonalEdgeStyle;rounded=0;orthogonalLoop=1;jettySize=auto;html=1;entryX=0;entryY=0.5;entryDx=0;entryDy=0;" edge="1" parent="1" source="VBR34R2BidAj_h5bLNep-14" target="f5wrERzETFn6Pyd23jyl-61">
          <mxGeometry relative="1" as="geometry" />
        </mxCell>
        <mxCell id="VBR34R2BidAj_h5bLNep-14" value="Load game" style="rounded=1;whiteSpace=wrap;html=1;absoluteArcSize=1;arcSize=14;strokeWidth=2;" parent="1" vertex="1">
          <mxGeometry x="-755" y="180" width="95" height="70" as="geometry" />
        </mxCell>
        <mxCell id="VBR34R2BidAj_h5bLNep-15" style="edgeStyle=orthogonalEdgeStyle;rounded=0;orthogonalLoop=1;jettySize=auto;html=1;entryX=0.5;entryY=0;entryDx=0;entryDy=0;entryPerimeter=0;" parent="1" source="oJ3E4rCQZsHQg811ANoI-60" target="oJ3E4rCQZsHQg811ANoI-28" edge="1">
          <mxGeometry relative="1" as="geometry" />
        </mxCell>
        <mxCell id="f5wrERzETFn6Pyd23jyl-4" value="Không" style="edgeLabel;html=1;align=center;verticalAlign=middle;resizable=0;points=[];" vertex="1" connectable="0" parent="VBR34R2BidAj_h5bLNep-15">
          <mxGeometry x="-0.3162" y="5" relative="1" as="geometry">
            <mxPoint x="24" y="2" as="offset" />
          </mxGeometry>
        </mxCell>
        <mxCell id="VBR34R2BidAj_h5bLNep-38" style="edgeStyle=orthogonalEdgeStyle;rounded=0;orthogonalLoop=1;jettySize=auto;html=1;" parent="1" source="VBR34R2BidAj_h5bLNep-16" target="VBR34R2BidAj_h5bLNep-17" edge="1">
          <mxGeometry relative="1" as="geometry" />
        </mxCell>
        <mxCell id="VBR34R2BidAj_h5bLNep-16" value="Luồng combat" style="rounded=1;whiteSpace=wrap;html=1;absoluteArcSize=1;arcSize=14;strokeWidth=2;" parent="1" vertex="1">
          <mxGeometry x="1540" y="712" width="100" height="70" as="geometry" />
        </mxCell>
        <mxCell id="VBR34R2BidAj_h5bLNep-39" style="edgeStyle=orthogonalEdgeStyle;rounded=0;orthogonalLoop=1;jettySize=auto;html=1;" parent="1" source="VBR34R2BidAj_h5bLNep-17" target="VBR34R2BidAj_h5bLNep-18" edge="1">
          <mxGeometry relative="1" as="geometry" />
        </mxCell>
        <mxCell id="VBR34R2BidAj_h5bLNep-17" value="Chọn quái vật gặp phải theo map đang ở" style="rounded=1;whiteSpace=wrap;html=1;absoluteArcSize=1;arcSize=14;strokeWidth=2;" parent="1" vertex="1">
          <mxGeometry x="1700" y="712" width="110" height="68" as="geometry" />
        </mxCell>
        <mxCell id="VBR34R2BidAj_h5bLNep-40" style="edgeStyle=orthogonalEdgeStyle;rounded=0;orthogonalLoop=1;jettySize=auto;html=1;" parent="1" source="VBR34R2BidAj_h5bLNep-18" target="VBR34R2BidAj_h5bLNep-19" edge="1">
          <mxGeometry relative="1" as="geometry" />
        </mxCell>
        <mxCell id="VBR34R2BidAj_h5bLNep-18" value="Chọn level của quái theo công thức: LV nhân vật cao nhất + random(-1, 1) * hệ số độ khó" style="rounded=1;whiteSpace=wrap;html=1;absoluteArcSize=1;arcSize=14;strokeWidth=2;" parent="1" vertex="1">
          <mxGeometry x="1860" y="708.5" width="130" height="75" as="geometry" />
        </mxCell>
        <mxCell id="VBR34R2BidAj_h5bLNep-29" style="edgeStyle=orthogonalEdgeStyle;rounded=0;orthogonalLoop=1;jettySize=auto;html=1;" parent="1" source="VBR34R2BidAj_h5bLNep-19" target="VBR34R2BidAj_h5bLNep-20" edge="1">
          <mxGeometry relative="1" as="geometry" />
        </mxCell>
        <mxCell id="VBR34R2BidAj_h5bLNep-19" value="In ra thông tin hai bên" style="rounded=1;whiteSpace=wrap;html=1;absoluteArcSize=1;arcSize=14;strokeWidth=2;" parent="1" vertex="1">
          <mxGeometry x="2040" y="702.25" width="100" height="87.5" as="geometry" />
        </mxCell>
        <mxCell id="VBR34R2BidAj_h5bLNep-30" style="edgeStyle=orthogonalEdgeStyle;rounded=0;orthogonalLoop=1;jettySize=auto;html=1;" parent="1" source="VBR34R2BidAj_h5bLNep-20" target="VBR34R2BidAj_h5bLNep-21" edge="1">
          <mxGeometry relative="1" as="geometry" />
        </mxCell>
        <mxCell id="VBR34R2BidAj_h5bLNep-34" style="edgeStyle=orthogonalEdgeStyle;rounded=0;orthogonalLoop=1;jettySize=auto;html=1;entryX=0;entryY=0.5;entryDx=0;entryDy=0;" parent="1" source="VBR34R2BidAj_h5bLNep-20" target="VBR34R2BidAj_h5bLNep-28" edge="1">
          <mxGeometry relative="1" as="geometry">
            <Array as="points">
              <mxPoint x="2190" y="912" />
              <mxPoint x="2190" y="1000" />
              <mxPoint x="2250" y="1000" />
            </Array>
          </mxGeometry>
        </mxCell>
        <mxCell id="VBR34R2BidAj_h5bLNep-20" value="Tấn công" style="strokeWidth=2;html=1;shape=mxgraph.flowchart.decision;whiteSpace=wrap;" parent="1" vertex="1">
          <mxGeometry x="2040" y="862" width="100" height="100" as="geometry" />
        </mxCell>
        <mxCell id="VBR34R2BidAj_h5bLNep-31" style="edgeStyle=orthogonalEdgeStyle;rounded=0;orthogonalLoop=1;jettySize=auto;html=1;" parent="1" source="VBR34R2BidAj_h5bLNep-21" target="VBR34R2BidAj_h5bLNep-22" edge="1">
          <mxGeometry relative="1" as="geometry" />
        </mxCell>
        <mxCell id="VBR34R2BidAj_h5bLNep-35" style="edgeStyle=orthogonalEdgeStyle;rounded=0;orthogonalLoop=1;jettySize=auto;html=1;entryX=0;entryY=0.5;entryDx=0;entryDy=0;" parent="1" source="VBR34R2BidAj_h5bLNep-21" edge="1" target="VBR34R2BidAj_h5bLNep-28">
          <mxGeometry relative="1" as="geometry">
            <mxPoint x="2240" y="1000" as="targetPoint" />
            <Array as="points">
              <mxPoint x="2190" y="1065" />
              <mxPoint x="2190" y="1000" />
              <mxPoint x="2250" y="1000" />
            </Array>
          </mxGeometry>
        </mxCell>
        <mxCell id="VBR34R2BidAj_h5bLNep-21" value="Skill" style="strokeWidth=2;html=1;shape=mxgraph.flowchart.decision;whiteSpace=wrap;" parent="1" vertex="1">
          <mxGeometry x="2040" y="1010" width="100" height="100" as="geometry" />
        </mxCell>
        <mxCell id="VBR34R2BidAj_h5bLNep-32" style="edgeStyle=orthogonalEdgeStyle;rounded=0;orthogonalLoop=1;jettySize=auto;html=1;" parent="1" source="VBR34R2BidAj_h5bLNep-22" target="VBR34R2BidAj_h5bLNep-23" edge="1">
          <mxGeometry relative="1" as="geometry" />
        </mxCell>
        <mxCell id="VBR34R2BidAj_h5bLNep-33" style="edgeStyle=orthogonalEdgeStyle;rounded=0;orthogonalLoop=1;jettySize=auto;html=1;entryX=0.5;entryY=0;entryDx=0;entryDy=0;entryPerimeter=0;" parent="1" source="VBR34R2BidAj_h5bLNep-22" edge="1" target="VBR34R2BidAj_h5bLNep-20">
          <mxGeometry relative="1" as="geometry">
            <mxPoint x="2100" y="860" as="targetPoint" />
            <Array as="points">
              <mxPoint x="1970" y="1215" />
              <mxPoint x="1970" y="840" />
              <mxPoint x="2090" y="840" />
            </Array>
          </mxGeometry>
        </mxCell>
        <mxCell id="VBR34R2BidAj_h5bLNep-22" value="Items" style="strokeWidth=2;html=1;shape=mxgraph.flowchart.decision;whiteSpace=wrap;" parent="1" vertex="1">
          <mxGeometry x="2040" y="1160" width="100" height="100" as="geometry" />
        </mxCell>
        <mxCell id="VBR34R2BidAj_h5bLNep-27" style="edgeStyle=orthogonalEdgeStyle;rounded=0;orthogonalLoop=1;jettySize=auto;html=1;" parent="1" source="VBR34R2BidAj_h5bLNep-23" target="VBR34R2BidAj_h5bLNep-24" edge="1">
          <mxGeometry relative="1" as="geometry" />
        </mxCell>
        <mxCell id="VBR34R2BidAj_h5bLNep-23" value="Run away" style="strokeWidth=2;html=1;shape=mxgraph.flowchart.decision;whiteSpace=wrap;" parent="1" vertex="1">
          <mxGeometry x="2040" y="1300" width="100" height="100" as="geometry" />
        </mxCell>
        <mxCell id="VBR34R2BidAj_h5bLNep-24" value="Tỉ lệ thành công = Random(0-1) + (Tổng HP ta - tổng hp địch) / tổng hp ta &amp;gt; 1&amp;nbsp;" style="rounded=1;whiteSpace=wrap;html=1;absoluteArcSize=1;arcSize=14;strokeWidth=2;" parent="1" vertex="1">
          <mxGeometry x="2210" y="1300" width="100" height="100" as="geometry" />
        </mxCell>
        <mxCell id="VBR34R2BidAj_h5bLNep-25" value="Thoát combat" style="strokeWidth=2;html=1;shape=mxgraph.flowchart.terminator;whiteSpace=wrap;" parent="1" vertex="1">
          <mxGeometry x="2380" y="1320" width="100" height="60" as="geometry" />
        </mxCell>
        <mxCell id="VBR34R2BidAj_h5bLNep-26" style="edgeStyle=orthogonalEdgeStyle;rounded=0;orthogonalLoop=1;jettySize=auto;html=1;" parent="1" source="VBR34R2BidAj_h5bLNep-24" target="VBR34R2BidAj_h5bLNep-25" edge="1">
          <mxGeometry relative="1" as="geometry">
            <mxPoint x="2370" y="1349" as="targetPoint" />
          </mxGeometry>
        </mxCell>
        <mxCell id="VBR34R2BidAj_h5bLNep-37" style="edgeStyle=orthogonalEdgeStyle;rounded=0;orthogonalLoop=1;jettySize=auto;html=1;entryX=1;entryY=0.5;entryDx=0;entryDy=0;exitX=0.5;exitY=0;exitDx=0;exitDy=0;" parent="1" source="VBR34R2BidAj_h5bLNep-28" target="VBR34R2BidAj_h5bLNep-19" edge="1">
          <mxGeometry relative="1" as="geometry">
            <Array as="points">
              <mxPoint x="2310" y="746" />
            </Array>
          </mxGeometry>
        </mxCell>
        <mxCell id="VBR34R2BidAj_h5bLNep-28" value="Lượt của địch" style="rounded=1;whiteSpace=wrap;html=1;absoluteArcSize=1;arcSize=14;strokeWidth=2;" parent="1" vertex="1">
          <mxGeometry x="2260" y="950" width="100" height="100" as="geometry" />
        </mxCell>
        <mxCell id="l8NPkd662WTSOCFMI4Qp-14" style="edgeStyle=orthogonalEdgeStyle;rounded=0;orthogonalLoop=1;jettySize=auto;html=1;" parent="1" source="l8NPkd662WTSOCFMI4Qp-1" target="l8NPkd662WTSOCFMI4Qp-2" edge="1">
          <mxGeometry relative="1" as="geometry" />
        </mxCell>
        <mxCell id="l8NPkd662WTSOCFMI4Qp-1" value="Luồng shop" style="rounded=1;whiteSpace=wrap;html=1;absoluteArcSize=1;arcSize=14;strokeWidth=2;" parent="1" vertex="1">
          <mxGeometry x="-1140" y="1210" width="100" height="80" as="geometry" />
        </mxCell>
        <mxCell id="l8NPkd662WTSOCFMI4Qp-15" style="edgeStyle=orthogonalEdgeStyle;rounded=0;orthogonalLoop=1;jettySize=auto;html=1;" parent="1" source="l8NPkd662WTSOCFMI4Qp-2" target="l8NPkd662WTSOCFMI4Qp-3" edge="1">
          <mxGeometry relative="1" as="geometry" />
        </mxCell>
        <mxCell id="l8NPkd662WTSOCFMI4Qp-18" style="edgeStyle=orthogonalEdgeStyle;rounded=0;orthogonalLoop=1;jettySize=auto;html=1;" parent="1" source="l8NPkd662WTSOCFMI4Qp-2" target="l8NPkd662WTSOCFMI4Qp-5" edge="1">
          <mxGeometry relative="1" as="geometry" />
        </mxCell>
        <mxCell id="l8NPkd662WTSOCFMI4Qp-2" value="Mua" style="strokeWidth=2;html=1;shape=mxgraph.flowchart.decision;whiteSpace=wrap;" parent="1" vertex="1">
          <mxGeometry x="-1140" y="1340" width="100" height="100" as="geometry" />
        </mxCell>
        <mxCell id="l8NPkd662WTSOCFMI4Qp-16" style="edgeStyle=orthogonalEdgeStyle;rounded=0;orthogonalLoop=1;jettySize=auto;html=1;" parent="1" source="l8NPkd662WTSOCFMI4Qp-3" target="l8NPkd662WTSOCFMI4Qp-4" edge="1">
          <mxGeometry relative="1" as="geometry" />
        </mxCell>
        <mxCell id="l8NPkd662WTSOCFMI4Qp-17" style="edgeStyle=orthogonalEdgeStyle;rounded=0;orthogonalLoop=1;jettySize=auto;html=1;" parent="1" source="l8NPkd662WTSOCFMI4Qp-3" target="l8NPkd662WTSOCFMI4Qp-13" edge="1">
          <mxGeometry relative="1" as="geometry" />
        </mxCell>
        <mxCell id="l8NPkd662WTSOCFMI4Qp-3" value="Bán" style="strokeWidth=2;html=1;shape=mxgraph.flowchart.decision;whiteSpace=wrap;" parent="1" vertex="1">
          <mxGeometry x="-1140" y="1870" width="100" height="100" as="geometry" />
        </mxCell>
        <mxCell id="f5wrERzETFn6Pyd23jyl-89" style="edgeStyle=orthogonalEdgeStyle;rounded=0;orthogonalLoop=1;jettySize=auto;html=1;entryX=0;entryY=0.5;entryDx=0;entryDy=0;" edge="1" parent="1" source="l8NPkd662WTSOCFMI4Qp-4" target="f5wrERzETFn6Pyd23jyl-88">
          <mxGeometry relative="1" as="geometry" />
        </mxCell>
        <mxCell id="l8NPkd662WTSOCFMI4Qp-4" value="Thoát" style="strokeWidth=2;html=1;shape=mxgraph.flowchart.decision;whiteSpace=wrap;" parent="1" vertex="1">
          <mxGeometry x="-1140" y="2020" width="100" height="100" as="geometry" />
        </mxCell>
        <mxCell id="l8NPkd662WTSOCFMI4Qp-5" value="Hiển thị danh sách các đồ có trong shop, chia ra làm các mục, có thể paging nếu cần" style="rounded=1;whiteSpace=wrap;html=1;absoluteArcSize=1;arcSize=14;strokeWidth=2;" parent="1" vertex="1">
          <mxGeometry x="-980" y="1340" width="100" height="100" as="geometry" />
        </mxCell>
        <mxCell id="f5wrERzETFn6Pyd23jyl-92" style="edgeStyle=orthogonalEdgeStyle;rounded=0;orthogonalLoop=1;jettySize=auto;html=1;entryX=0;entryY=0.5;entryDx=0;entryDy=0;" edge="1" parent="1" source="l8NPkd662WTSOCFMI4Qp-13" target="f5wrERzETFn6Pyd23jyl-93">
          <mxGeometry relative="1" as="geometry">
            <mxPoint x="-810" y="1920" as="targetPoint" />
          </mxGeometry>
        </mxCell>
        <mxCell id="l8NPkd662WTSOCFMI4Qp-13" value="Hiện danh sách đồ bán được" style="rounded=1;whiteSpace=wrap;html=1;absoluteArcSize=1;arcSize=14;strokeWidth=2;" parent="1" vertex="1">
          <mxGeometry x="-975" y="1870" width="100" height="100" as="geometry" />
        </mxCell>
        <mxCell id="l8NPkd662WTSOCFMI4Qp-19" style="edgeStyle=orthogonalEdgeStyle;rounded=0;orthogonalLoop=1;jettySize=auto;html=1;entryX=0;entryY=0.5;entryDx=0;entryDy=0;" parent="1" source="l8NPkd662WTSOCFMI4Qp-5" target="f5wrERzETFn6Pyd23jyl-63" edge="1">
          <mxGeometry relative="1" as="geometry">
            <mxPoint x="-810" y="1390" as="targetPoint" />
          </mxGeometry>
        </mxCell>
        <mxCell id="l8NPkd662WTSOCFMI4Qp-25" value="Luồng tạo nhân vật" style="rounded=1;whiteSpace=wrap;html=1;absoluteArcSize=1;arcSize=14;strokeWidth=2;" parent="1" vertex="1">
          <mxGeometry x="-330" y="1885" width="100" height="100" as="geometry" />
        </mxCell>
        <mxCell id="l8NPkd662WTSOCFMI4Qp-28" value="Hiển thị các nhân vật có thể chọn, cho phép người dùng chọn" style="rounded=1;whiteSpace=wrap;html=1;absoluteArcSize=1;arcSize=14;strokeWidth=2;" parent="1" vertex="1">
          <mxGeometry x="190.59" y="1885" width="100" height="100" as="geometry" />
        </mxCell>
        <mxCell id="l8NPkd662WTSOCFMI4Qp-32" value="Nhân vật &amp;gt; 0" style="strokeWidth=2;html=1;shape=mxgraph.flowchart.decision;whiteSpace=wrap;" parent="1" vertex="1">
          <mxGeometry x="-70" y="2170" width="100" height="100" as="geometry" />
        </mxCell>
        <mxCell id="f5wrERzETFn6Pyd23jyl-162" style="edgeStyle=orthogonalEdgeStyle;rounded=0;orthogonalLoop=1;jettySize=auto;html=1;entryX=0;entryY=0.5;entryDx=0;entryDy=0;" edge="1" parent="1" source="l8NPkd662WTSOCFMI4Qp-34" target="l8NPkd662WTSOCFMI4Qp-39">
          <mxGeometry relative="1" as="geometry" />
        </mxCell>
        <mxCell id="f5wrERzETFn6Pyd23jyl-173" value="Có" style="edgeLabel;html=1;align=center;verticalAlign=middle;resizable=0;points=[];" vertex="1" connectable="0" parent="f5wrERzETFn6Pyd23jyl-162">
          <mxGeometry x="0.0937" y="-1" relative="1" as="geometry">
            <mxPoint as="offset" />
          </mxGeometry>
        </mxCell>
        <mxCell id="l8NPkd662WTSOCFMI4Qp-34" value="Bỏ nhân vật" style="strokeWidth=2;html=1;shape=mxgraph.flowchart.decision;whiteSpace=wrap;" parent="1" vertex="1">
          <mxGeometry x="65.59" y="2170" width="100" height="100" as="geometry" />
        </mxCell>
        <mxCell id="f5wrERzETFn6Pyd23jyl-130" style="edgeStyle=orthogonalEdgeStyle;rounded=0;orthogonalLoop=1;jettySize=auto;html=1;entryX=0;entryY=0.5;entryDx=0;entryDy=0;" edge="1" parent="1" source="l8NPkd662WTSOCFMI4Qp-35" target="l8NPkd662WTSOCFMI4Qp-28">
          <mxGeometry relative="1" as="geometry">
            <mxPoint x="185.59" y="1935" as="targetPoint" />
          </mxGeometry>
        </mxCell>
        <mxCell id="f5wrERzETFn6Pyd23jyl-171" value="Có" style="edgeLabel;html=1;align=center;verticalAlign=middle;resizable=0;points=[];" vertex="1" connectable="0" parent="f5wrERzETFn6Pyd23jyl-130">
          <mxGeometry x="0.3604" y="-1" relative="1" as="geometry">
            <mxPoint as="offset" />
          </mxGeometry>
        </mxCell>
        <mxCell id="l8NPkd662WTSOCFMI4Qp-35" value="Thêm nhân vật" style="strokeWidth=2;html=1;shape=mxgraph.flowchart.decision;whiteSpace=wrap;" parent="1" vertex="1">
          <mxGeometry x="65.59" y="1885" width="100" height="100" as="geometry" />
        </mxCell>
        <mxCell id="f5wrERzETFn6Pyd23jyl-153" style="edgeStyle=orthogonalEdgeStyle;rounded=0;orthogonalLoop=1;jettySize=auto;html=1;entryX=1;entryY=0.5;entryDx=0;entryDy=0;" edge="1" parent="1" source="l8NPkd662WTSOCFMI4Qp-36" target="f5wrERzETFn6Pyd23jyl-152">
          <mxGeometry relative="1" as="geometry" />
        </mxCell>
        <mxCell id="f5wrERzETFn6Pyd23jyl-155" style="edgeStyle=orthogonalEdgeStyle;rounded=0;orthogonalLoop=1;jettySize=auto;html=1;entryX=0;entryY=0.5;entryDx=0;entryDy=0;" edge="1" parent="1" source="l8NPkd662WTSOCFMI4Qp-36" target="f5wrERzETFn6Pyd23jyl-151">
          <mxGeometry relative="1" as="geometry" />
        </mxCell>
        <mxCell id="l8NPkd662WTSOCFMI4Qp-36" value="Xác nhận" style="strokeWidth=2;html=1;shape=mxgraph.flowchart.decision;whiteSpace=wrap;" parent="1" vertex="1">
          <mxGeometry x="-70" y="2570" width="100" height="100" as="geometry" />
        </mxCell>
        <mxCell id="f5wrERzETFn6Pyd23jyl-174" style="edgeStyle=orthogonalEdgeStyle;rounded=0;orthogonalLoop=1;jettySize=auto;html=1;entryX=0;entryY=0.5;entryDx=0;entryDy=0;" edge="1" parent="1" source="l8NPkd662WTSOCFMI4Qp-37" target="l8NPkd662WTSOCFMI4Qp-38">
          <mxGeometry relative="1" as="geometry" />
        </mxCell>
        <mxCell id="f5wrERzETFn6Pyd23jyl-192" value="Có" style="edgeLabel;html=1;align=center;verticalAlign=middle;resizable=0;points=[];" vertex="1" connectable="0" parent="f5wrERzETFn6Pyd23jyl-174">
          <mxGeometry x="0.0937" y="1" relative="1" as="geometry">
            <mxPoint as="offset" />
          </mxGeometry>
        </mxCell>
        <mxCell id="l8NPkd662WTSOCFMI4Qp-37" value="Đổi nhân vật" style="strokeWidth=2;html=1;shape=mxgraph.flowchart.decision;whiteSpace=wrap;" parent="1" vertex="1">
          <mxGeometry x="65.59" y="2440" width="100" height="100" as="geometry" />
        </mxCell>
        <mxCell id="l8NPkd662WTSOCFMI4Qp-38" value="Cho phép chọn một nhân vật để đổi" style="rounded=1;whiteSpace=wrap;html=1;absoluteArcSize=1;arcSize=14;strokeWidth=2;" parent="1" vertex="1">
          <mxGeometry x="190.59" y="2440" width="100" height="100" as="geometry" />
        </mxCell>
        <mxCell id="l8NPkd662WTSOCFMI4Qp-39" value="Cho phép chọn một nhân vật để bỏ" style="rounded=1;whiteSpace=wrap;html=1;absoluteArcSize=1;arcSize=14;strokeWidth=2;" parent="1" vertex="1">
          <mxGeometry x="190.59" y="2170" width="100" height="100" as="geometry" />
        </mxCell>
        <mxCell id="l8NPkd662WTSOCFMI4Qp-40" value="Luồng di chuyển&amp;nbsp;" style="rounded=1;whiteSpace=wrap;html=1;absoluteArcSize=1;arcSize=14;strokeWidth=2;" parent="1" vertex="1">
          <mxGeometry x="1585" y="1525" width="100" height="100" as="geometry" />
        </mxCell>
        <mxCell id="l8NPkd662WTSOCFMI4Qp-41" value="Hiển thị các địa điểm xung quanh và cho phép chọn rồi đi đến" style="rounded=1;whiteSpace=wrap;html=1;absoluteArcSize=1;arcSize=14;strokeWidth=2;" parent="1" vertex="1">
          <mxGeometry x="1740" y="1525" width="100" height="100" as="geometry" />
        </mxCell>
        <mxCell id="f5wrERzETFn6Pyd23jyl-10" style="edgeStyle=orthogonalEdgeStyle;rounded=0;orthogonalLoop=1;jettySize=auto;html=1;entryX=0.5;entryY=0;entryDx=0;entryDy=0;" edge="1" parent="1" source="j7GnpJIxGhJe8ZzKr4eX-2" target="oJ3E4rCQZsHQg811ANoI-27">
          <mxGeometry relative="1" as="geometry">
            <Array as="points">
              <mxPoint x="-35" y="372" />
              <mxPoint x="-501" y="372" />
            </Array>
          </mxGeometry>
        </mxCell>
        <mxCell id="j7GnpJIxGhJe8ZzKr4eX-2" value="Luồng game" style="rounded=1;whiteSpace=wrap;html=1;absoluteArcSize=1;arcSize=14;strokeWidth=2;" parent="1" vertex="1">
          <mxGeometry x="-85" y="809.5" width="100" height="100" as="geometry" />
        </mxCell>
        <mxCell id="f5wrERzETFn6Pyd23jyl-7" style="edgeStyle=orthogonalEdgeStyle;rounded=0;orthogonalLoop=1;jettySize=auto;html=1;entryX=0.5;entryY=0;entryDx=0;entryDy=0;" edge="1" parent="1" source="j7GnpJIxGhJe8ZzKr4eX-5" target="oJ3E4rCQZsHQg811ANoI-27">
          <mxGeometry relative="1" as="geometry">
            <Array as="points">
              <mxPoint x="-900" y="372" />
              <mxPoint x="-501" y="372" />
            </Array>
          </mxGeometry>
        </mxCell>
        <mxCell id="j7GnpJIxGhJe8ZzKr4eX-5" value="Luồng game" style="rounded=1;whiteSpace=wrap;html=1;absoluteArcSize=1;arcSize=14;strokeWidth=2;" parent="1" vertex="1">
          <mxGeometry x="-950" y="532" width="100" height="100" as="geometry" />
        </mxCell>
        <mxCell id="j7GnpJIxGhJe8ZzKr4eX-8" value="Kết thúc" style="strokeWidth=2;html=1;shape=mxgraph.flowchart.terminator;whiteSpace=wrap;" parent="1" vertex="1">
          <mxGeometry x="780" y="566" width="100" height="60" as="geometry" />
        </mxCell>
        <mxCell id="j7GnpJIxGhJe8ZzKr4eX-12" style="edgeStyle=orthogonalEdgeStyle;rounded=0;orthogonalLoop=1;jettySize=auto;html=1;entryX=1;entryY=0.5;entryDx=0;entryDy=0;" parent="1" source="j7GnpJIxGhJe8ZzKr4eX-10" target="j7GnpJIxGhJe8ZzKr4eX-5" edge="1">
          <mxGeometry relative="1" as="geometry" />
        </mxCell>
        <mxCell id="f5wrERzETFn6Pyd23jyl-13" value="Có" style="edgeLabel;html=1;align=center;verticalAlign=middle;resizable=0;points=[];" vertex="1" connectable="0" parent="j7GnpJIxGhJe8ZzKr4eX-12">
          <mxGeometry x="-0.1353" y="-1" relative="1" as="geometry">
            <mxPoint as="offset" />
          </mxGeometry>
        </mxCell>
        <mxCell id="j7GnpJIxGhJe8ZzKr4eX-10" value="Continue" style="strokeWidth=2;html=1;shape=mxgraph.flowchart.decision;whiteSpace=wrap;" parent="1" vertex="1">
          <mxGeometry x="-790" y="542" width="80" height="80" as="geometry" />
        </mxCell>
        <mxCell id="j7GnpJIxGhJe8ZzKr4eX-11" style="edgeStyle=orthogonalEdgeStyle;rounded=0;orthogonalLoop=1;jettySize=auto;html=1;entryX=0.5;entryY=0;entryDx=0;entryDy=0;entryPerimeter=0;" parent="1" source="j7GnpJIxGhJe8ZzKr4eX-10" target="oJ3E4rCQZsHQg811ANoI-61" edge="1">
          <mxGeometry relative="1" as="geometry" />
        </mxCell>
        <mxCell id="f5wrERzETFn6Pyd23jyl-17" value="Không" style="edgeLabel;html=1;align=center;verticalAlign=middle;resizable=0;points=[];" vertex="1" connectable="0" parent="j7GnpJIxGhJe8ZzKr4eX-11">
          <mxGeometry x="0.5471" relative="1" as="geometry">
            <mxPoint y="1" as="offset" />
          </mxGeometry>
        </mxCell>
        <mxCell id="j7GnpJIxGhJe8ZzKr4eX-13" value="Không" style="text;html=1;align=center;verticalAlign=middle;resizable=0;points=[];autosize=1;strokeColor=none;fillColor=none;" parent="1" vertex="1">
          <mxGeometry x="940" y="908" width="60" height="30" as="geometry" />
        </mxCell>
        <mxCell id="f5wrERzETFn6Pyd23jyl-1" value="Luồng lưu game" style="rounded=1;whiteSpace=wrap;html=1;absoluteArcSize=1;arcSize=14;strokeWidth=2;" vertex="1" parent="1">
          <mxGeometry x="-950" y="647" width="100" height="70" as="geometry" />
        </mxCell>
        <mxCell id="f5wrERzETFn6Pyd23jyl-11" value="Hiện chỉ số" style="rounded=1;whiteSpace=wrap;html=1;absoluteArcSize=1;arcSize=14;strokeWidth=2;" vertex="1" parent="1">
          <mxGeometry x="-950" y="752" width="100" height="60" as="geometry" />
        </mxCell>
        <mxCell id="f5wrERzETFn6Pyd23jyl-40" value="Có" style="edgeLabel;html=1;align=center;verticalAlign=middle;resizable=0;points=[];" vertex="1" connectable="0" parent="1">
          <mxGeometry x="1180" y="1220" as="geometry">
            <mxPoint x="-1" y="-12" as="offset" />
          </mxGeometry>
        </mxCell>
        <mxCell id="f5wrERzETFn6Pyd23jyl-41" value="Có" style="edgeLabel;html=1;align=center;verticalAlign=middle;resizable=0;points=[];" vertex="1" connectable="0" parent="1">
          <mxGeometry x="1160" y="1060" as="geometry">
            <mxPoint x="12" y="12" as="offset" />
          </mxGeometry>
        </mxCell>
        <mxCell id="f5wrERzETFn6Pyd23jyl-42" value="Có" style="edgeLabel;html=1;align=center;verticalAlign=middle;resizable=0;points=[];" vertex="1" connectable="0" parent="1">
          <mxGeometry x="1170" y="930" as="geometry" />
        </mxCell>
        <mxCell id="f5wrERzETFn6Pyd23jyl-60" style="edgeStyle=orthogonalEdgeStyle;rounded=0;orthogonalLoop=1;jettySize=auto;html=1;" edge="1" parent="1" source="f5wrERzETFn6Pyd23jyl-57" target="f5wrERzETFn6Pyd23jyl-58">
          <mxGeometry relative="1" as="geometry" />
        </mxCell>
        <mxCell id="f5wrERzETFn6Pyd23jyl-57" value="Serialize dữ liệu của game" style="rounded=1;whiteSpace=wrap;html=1;absoluteArcSize=1;arcSize=14;strokeWidth=2;" vertex="1" parent="1">
          <mxGeometry x="-600" y="50" width="100" height="70" as="geometry" />
        </mxCell>
        <mxCell id="f5wrERzETFn6Pyd23jyl-58" value="Viết vào bộ nhớ" style="rounded=1;whiteSpace=wrap;html=1;absoluteArcSize=1;arcSize=14;strokeWidth=2;" vertex="1" parent="1">
          <mxGeometry x="-440" y="50" width="100" height="70" as="geometry" />
        </mxCell>
        <mxCell id="f5wrERzETFn6Pyd23jyl-61" value="Đọc từ bộ nhớ và deserialize" style="rounded=1;whiteSpace=wrap;html=1;absoluteArcSize=1;arcSize=14;strokeWidth=2;" vertex="1" parent="1">
          <mxGeometry x="-600" y="180" width="100" height="70" as="geometry" />
        </mxCell>
        <mxCell id="f5wrERzETFn6Pyd23jyl-63" value="Cho người dùng nhập vào số thứ tự vật phẩm muốn mua" style="rounded=1;whiteSpace=wrap;html=1;absoluteArcSize=1;arcSize=14;strokeWidth=2;" vertex="1" parent="1">
          <mxGeometry x="-810" y="1340" width="100" height="100" as="geometry" />
        </mxCell>
        <mxCell id="f5wrERzETFn6Pyd23jyl-79" style="edgeStyle=orthogonalEdgeStyle;rounded=0;orthogonalLoop=1;jettySize=auto;html=1;entryX=0.5;entryY=0;entryDx=0;entryDy=0;exitX=0.5;exitY=0;exitDx=0;exitDy=0;" edge="1" parent="1" source="f5wrERzETFn6Pyd23jyl-85" target="f5wrERzETFn6Pyd23jyl-63">
          <mxGeometry relative="1" as="geometry">
            <Array as="points">
              <mxPoint x="-445" y="1320" />
              <mxPoint x="-760" y="1320" />
            </Array>
          </mxGeometry>
        </mxCell>
        <mxCell id="f5wrERzETFn6Pyd23jyl-86" style="edgeStyle=orthogonalEdgeStyle;rounded=0;orthogonalLoop=1;jettySize=auto;html=1;entryX=0;entryY=0.5;entryDx=0;entryDy=0;" edge="1" parent="1" source="f5wrERzETFn6Pyd23jyl-66" target="f5wrERzETFn6Pyd23jyl-85">
          <mxGeometry relative="1" as="geometry" />
        </mxCell>
        <mxCell id="f5wrERzETFn6Pyd23jyl-87" value="Có" style="edgeLabel;html=1;align=center;verticalAlign=middle;resizable=0;points=[];" vertex="1" connectable="0" parent="f5wrERzETFn6Pyd23jyl-86">
          <mxGeometry x="-0.1188" relative="1" as="geometry">
            <mxPoint as="offset" />
          </mxGeometry>
        </mxCell>
        <mxCell id="f5wrERzETFn6Pyd23jyl-66" value="Số thứ tự vượt quá list" style="strokeWidth=2;html=1;shape=mxgraph.flowchart.decision;whiteSpace=wrap;" vertex="1" parent="1">
          <mxGeometry x="-635" y="1340" width="100" height="100" as="geometry" />
        </mxCell>
        <mxCell id="f5wrERzETFn6Pyd23jyl-71" style="edgeStyle=orthogonalEdgeStyle;rounded=0;orthogonalLoop=1;jettySize=auto;html=1;entryX=0.5;entryY=0;entryDx=0;entryDy=0;" edge="1" parent="1" source="f5wrERzETFn6Pyd23jyl-67" target="f5wrERzETFn6Pyd23jyl-68">
          <mxGeometry relative="1" as="geometry" />
        </mxCell>
        <mxCell id="f5wrERzETFn6Pyd23jyl-76" value="Không" style="edgeLabel;html=1;align=center;verticalAlign=middle;resizable=0;points=[];" vertex="1" connectable="0" parent="f5wrERzETFn6Pyd23jyl-71">
          <mxGeometry x="-0.6379" y="-1" relative="1" as="geometry">
            <mxPoint as="offset" />
          </mxGeometry>
        </mxCell>
        <mxCell id="f5wrERzETFn6Pyd23jyl-73" style="edgeStyle=orthogonalEdgeStyle;rounded=0;orthogonalLoop=1;jettySize=auto;html=1;entryX=0;entryY=0.5;entryDx=0;entryDy=0;" edge="1" parent="1" source="f5wrERzETFn6Pyd23jyl-67" target="f5wrERzETFn6Pyd23jyl-72">
          <mxGeometry relative="1" as="geometry" />
        </mxCell>
        <mxCell id="f5wrERzETFn6Pyd23jyl-77" value="Có" style="edgeLabel;html=1;align=center;verticalAlign=middle;resizable=0;points=[];" vertex="1" connectable="0" parent="f5wrERzETFn6Pyd23jyl-73">
          <mxGeometry x="-0.3769" relative="1" as="geometry">
            <mxPoint as="offset" />
          </mxGeometry>
        </mxCell>
        <mxCell id="f5wrERzETFn6Pyd23jyl-67" value="Người chơi đủ tiền mua" style="strokeWidth=2;html=1;shape=mxgraph.flowchart.decision;whiteSpace=wrap;" vertex="1" parent="1">
          <mxGeometry x="-635" y="1600" width="100" height="100" as="geometry" />
        </mxCell>
        <mxCell id="f5wrERzETFn6Pyd23jyl-90" style="edgeStyle=orthogonalEdgeStyle;rounded=0;orthogonalLoop=1;jettySize=auto;html=1;entryX=1;entryY=0.5;entryDx=0;entryDy=0;" edge="1" parent="1" source="f5wrERzETFn6Pyd23jyl-68" target="l8NPkd662WTSOCFMI4Qp-1">
          <mxGeometry relative="1" as="geometry">
            <Array as="points">
              <mxPoint x="-370" y="1775" />
              <mxPoint x="-370" y="1250" />
            </Array>
          </mxGeometry>
        </mxCell>
        <mxCell id="f5wrERzETFn6Pyd23jyl-68" value="Thông báo không đủ tiền" style="rounded=1;whiteSpace=wrap;html=1;absoluteArcSize=1;arcSize=14;strokeWidth=2;" vertex="1" parent="1">
          <mxGeometry x="-630" y="1730" width="90" height="90" as="geometry" />
        </mxCell>
        <mxCell id="f5wrERzETFn6Pyd23jyl-70" style="edgeStyle=orthogonalEdgeStyle;rounded=0;orthogonalLoop=1;jettySize=auto;html=1;entryX=0.5;entryY=0;entryDx=0;entryDy=0;entryPerimeter=0;" edge="1" parent="1" source="f5wrERzETFn6Pyd23jyl-64" target="f5wrERzETFn6Pyd23jyl-67">
          <mxGeometry relative="1" as="geometry" />
        </mxCell>
        <mxCell id="f5wrERzETFn6Pyd23jyl-75" value="Không" style="edgeLabel;html=1;align=center;verticalAlign=middle;resizable=0;points=[];" vertex="1" connectable="0" parent="f5wrERzETFn6Pyd23jyl-70">
          <mxGeometry x="0.3516" relative="1" as="geometry">
            <mxPoint as="offset" />
          </mxGeometry>
        </mxCell>
        <mxCell id="f5wrERzETFn6Pyd23jyl-91" style="edgeStyle=orthogonalEdgeStyle;rounded=0;orthogonalLoop=1;jettySize=auto;html=1;entryX=1;entryY=0.5;entryDx=0;entryDy=0;" edge="1" parent="1" source="f5wrERzETFn6Pyd23jyl-72" target="l8NPkd662WTSOCFMI4Qp-1">
          <mxGeometry relative="1" as="geometry">
            <Array as="points">
              <mxPoint x="-370" y="1650" />
              <mxPoint x="-370" y="1250" />
            </Array>
          </mxGeometry>
        </mxCell>
        <mxCell id="f5wrERzETFn6Pyd23jyl-72" value="Trừ tiền và thêm vật phẩm vào túi đồ" style="rounded=1;whiteSpace=wrap;html=1;absoluteArcSize=1;arcSize=14;strokeWidth=2;" vertex="1" parent="1">
          <mxGeometry x="-500" y="1600" width="100" height="100" as="geometry" />
        </mxCell>
        <mxCell id="f5wrERzETFn6Pyd23jyl-80" value="" style="edgeStyle=orthogonalEdgeStyle;rounded=0;orthogonalLoop=1;jettySize=auto;html=1;entryX=0.5;entryY=0;entryDx=0;entryDy=0;entryPerimeter=0;" edge="1" parent="1" source="f5wrERzETFn6Pyd23jyl-66" target="f5wrERzETFn6Pyd23jyl-64">
          <mxGeometry relative="1" as="geometry">
            <mxPoint x="-500" y="1420" as="sourcePoint" />
            <mxPoint x="-585" y="1600" as="targetPoint" />
          </mxGeometry>
        </mxCell>
        <mxCell id="f5wrERzETFn6Pyd23jyl-83" value="Không" style="edgeLabel;html=1;align=center;verticalAlign=middle;resizable=0;points=[];" vertex="1" connectable="0" parent="f5wrERzETFn6Pyd23jyl-80">
          <mxGeometry x="0.09" relative="1" as="geometry">
            <mxPoint as="offset" />
          </mxGeometry>
        </mxCell>
        <mxCell id="f5wrERzETFn6Pyd23jyl-64" value="Thoát (độ dài + 1)" style="strokeWidth=2;html=1;shape=mxgraph.flowchart.decision;whiteSpace=wrap;" vertex="1" parent="1">
          <mxGeometry x="-645" y="1465" width="120" height="110" as="geometry" />
        </mxCell>
        <mxCell id="f5wrERzETFn6Pyd23jyl-82" style="edgeStyle=orthogonalEdgeStyle;rounded=0;orthogonalLoop=1;jettySize=auto;html=1;entryX=0;entryY=0.5;entryDx=0;entryDy=0;entryPerimeter=0;" edge="1" parent="1" source="f5wrERzETFn6Pyd23jyl-63" target="f5wrERzETFn6Pyd23jyl-66">
          <mxGeometry relative="1" as="geometry" />
        </mxCell>
        <mxCell id="f5wrERzETFn6Pyd23jyl-85" value="Thông báo lỗi" style="rounded=1;whiteSpace=wrap;html=1;absoluteArcSize=1;arcSize=14;strokeWidth=2;" vertex="1" parent="1">
          <mxGeometry x="-490" y="1345" width="90" height="90" as="geometry" />
        </mxCell>
        <mxCell id="f5wrERzETFn6Pyd23jyl-88" value="Thoát" style="rounded=1;whiteSpace=wrap;html=1;absoluteArcSize=1;arcSize=14;strokeWidth=2;" vertex="1" parent="1">
          <mxGeometry x="-975" y="2020" width="100" height="100" as="geometry" />
        </mxCell>
        <mxCell id="f5wrERzETFn6Pyd23jyl-93" value="Cho người dùng nhập vào số thứ tự vật phẩm muốn mua" style="rounded=1;whiteSpace=wrap;html=1;absoluteArcSize=1;arcSize=14;strokeWidth=2;" vertex="1" parent="1">
          <mxGeometry x="-810" y="1870" width="100" height="100" as="geometry" />
        </mxCell>
        <mxCell id="f5wrERzETFn6Pyd23jyl-102" style="edgeStyle=orthogonalEdgeStyle;rounded=0;orthogonalLoop=1;jettySize=auto;html=1;entryX=0;entryY=0.5;entryDx=0;entryDy=0;" edge="1" parent="1" source="f5wrERzETFn6Pyd23jyl-94" target="f5wrERzETFn6Pyd23jyl-101">
          <mxGeometry relative="1" as="geometry" />
        </mxCell>
        <mxCell id="f5wrERzETFn6Pyd23jyl-104" value="Có" style="edgeLabel;html=1;align=center;verticalAlign=middle;resizable=0;points=[];" vertex="1" connectable="0" parent="f5wrERzETFn6Pyd23jyl-102">
          <mxGeometry x="-0.473" relative="1" as="geometry">
            <mxPoint as="offset" />
          </mxGeometry>
        </mxCell>
        <mxCell id="f5wrERzETFn6Pyd23jyl-94" value="Số thứ tự vượt quá list" style="strokeWidth=2;html=1;shape=mxgraph.flowchart.decision;whiteSpace=wrap;" vertex="1" parent="1">
          <mxGeometry x="-635" y="1870" width="100" height="100" as="geometry" />
        </mxCell>
        <mxCell id="f5wrERzETFn6Pyd23jyl-100" style="edgeStyle=orthogonalEdgeStyle;rounded=0;orthogonalLoop=1;jettySize=auto;html=1;entryX=0.5;entryY=0;entryDx=0;entryDy=0;" edge="1" parent="1" source="f5wrERzETFn6Pyd23jyl-95" target="f5wrERzETFn6Pyd23jyl-97">
          <mxGeometry relative="1" as="geometry" />
        </mxCell>
        <mxCell id="f5wrERzETFn6Pyd23jyl-106" value="Không" style="edgeLabel;html=1;align=center;verticalAlign=middle;resizable=0;points=[];" vertex="1" connectable="0" parent="f5wrERzETFn6Pyd23jyl-100">
          <mxGeometry x="0.1543" y="1" relative="1" as="geometry">
            <mxPoint as="offset" />
          </mxGeometry>
        </mxCell>
        <mxCell id="f5wrERzETFn6Pyd23jyl-95" value="Thoát (độ dài + 1)" style="strokeWidth=2;html=1;shape=mxgraph.flowchart.decision;whiteSpace=wrap;" vertex="1" parent="1">
          <mxGeometry x="-645" y="2000" width="120" height="110" as="geometry" />
        </mxCell>
        <mxCell id="f5wrERzETFn6Pyd23jyl-107" style="edgeStyle=orthogonalEdgeStyle;rounded=0;orthogonalLoop=1;jettySize=auto;html=1;entryX=1;entryY=0.5;entryDx=0;entryDy=0;" edge="1" parent="1" source="f5wrERzETFn6Pyd23jyl-97" target="l8NPkd662WTSOCFMI4Qp-1">
          <mxGeometry relative="1" as="geometry">
            <Array as="points">
              <mxPoint x="-370" y="2190" />
              <mxPoint x="-370" y="1250" />
            </Array>
          </mxGeometry>
        </mxCell>
        <mxCell id="f5wrERzETFn6Pyd23jyl-97" value="Bỏ vật phẩm khỏi túi đồ và cộng tiền cho người chơi" style="rounded=1;whiteSpace=wrap;html=1;absoluteArcSize=1;arcSize=14;strokeWidth=2;" vertex="1" parent="1">
          <mxGeometry x="-635" y="2140" width="100" height="100" as="geometry" />
        </mxCell>
        <mxCell id="f5wrERzETFn6Pyd23jyl-98" style="edgeStyle=orthogonalEdgeStyle;rounded=0;orthogonalLoop=1;jettySize=auto;html=1;entryX=0;entryY=0.5;entryDx=0;entryDy=0;entryPerimeter=0;" edge="1" parent="1" source="f5wrERzETFn6Pyd23jyl-93" target="f5wrERzETFn6Pyd23jyl-94">
          <mxGeometry relative="1" as="geometry" />
        </mxCell>
        <mxCell id="f5wrERzETFn6Pyd23jyl-99" style="edgeStyle=orthogonalEdgeStyle;rounded=0;orthogonalLoop=1;jettySize=auto;html=1;entryX=0.5;entryY=0;entryDx=0;entryDy=0;entryPerimeter=0;" edge="1" parent="1" source="f5wrERzETFn6Pyd23jyl-94" target="f5wrERzETFn6Pyd23jyl-95">
          <mxGeometry relative="1" as="geometry" />
        </mxCell>
        <mxCell id="f5wrERzETFn6Pyd23jyl-105" value="Không" style="edgeLabel;html=1;align=center;verticalAlign=middle;resizable=0;points=[];" vertex="1" connectable="0" parent="f5wrERzETFn6Pyd23jyl-99">
          <mxGeometry x="-0.6114" relative="1" as="geometry">
            <mxPoint as="offset" />
          </mxGeometry>
        </mxCell>
        <mxCell id="f5wrERzETFn6Pyd23jyl-103" style="edgeStyle=orthogonalEdgeStyle;rounded=0;orthogonalLoop=1;jettySize=auto;html=1;entryX=0.5;entryY=0;entryDx=0;entryDy=0;" edge="1" parent="1" source="f5wrERzETFn6Pyd23jyl-101" target="f5wrERzETFn6Pyd23jyl-93">
          <mxGeometry relative="1" as="geometry">
            <Array as="points">
              <mxPoint x="-455" y="1850" />
              <mxPoint x="-760" y="1850" />
            </Array>
          </mxGeometry>
        </mxCell>
        <mxCell id="f5wrERzETFn6Pyd23jyl-101" value="Thông báo lỗi" style="rounded=1;whiteSpace=wrap;html=1;absoluteArcSize=1;arcSize=14;strokeWidth=2;" vertex="1" parent="1">
          <mxGeometry x="-500" y="1875" width="90" height="90" as="geometry" />
        </mxCell>
        <mxCell id="f5wrERzETFn6Pyd23jyl-112" style="edgeStyle=orthogonalEdgeStyle;rounded=0;orthogonalLoop=1;jettySize=auto;html=1;entryX=0.5;entryY=0;entryDx=0;entryDy=0;" edge="1" parent="1" source="f5wrERzETFn6Pyd23jyl-109" target="f5wrERzETFn6Pyd23jyl-110">
          <mxGeometry relative="1" as="geometry" />
        </mxCell>
        <mxCell id="f5wrERzETFn6Pyd23jyl-113" value="Có" style="edgeLabel;html=1;align=center;verticalAlign=middle;resizable=0;points=[];" vertex="1" connectable="0" parent="f5wrERzETFn6Pyd23jyl-112">
          <mxGeometry x="-0.7206" relative="1" as="geometry">
            <mxPoint as="offset" />
          </mxGeometry>
        </mxCell>
        <mxCell id="f5wrERzETFn6Pyd23jyl-115" style="edgeStyle=orthogonalEdgeStyle;rounded=0;orthogonalLoop=1;jettySize=auto;html=1;entryX=0;entryY=0.5;entryDx=0;entryDy=0;" edge="1" parent="1" source="f5wrERzETFn6Pyd23jyl-109" target="f5wrERzETFn6Pyd23jyl-114">
          <mxGeometry relative="1" as="geometry" />
        </mxCell>
        <mxCell id="f5wrERzETFn6Pyd23jyl-116" value="Không" style="edgeLabel;html=1;align=center;verticalAlign=middle;resizable=0;points=[];" vertex="1" connectable="0" parent="f5wrERzETFn6Pyd23jyl-115">
          <mxGeometry x="-0.0413" y="1" relative="1" as="geometry">
            <mxPoint as="offset" />
          </mxGeometry>
        </mxCell>
        <mxCell id="f5wrERzETFn6Pyd23jyl-109" value="Lỗi" style="strokeWidth=2;html=1;shape=mxgraph.flowchart.decision;whiteSpace=wrap;" vertex="1" parent="1">
          <mxGeometry x="-440" y="167.5" width="90" height="95" as="geometry" />
        </mxCell>
        <mxCell id="f5wrERzETFn6Pyd23jyl-110" value="Thông báo lỗi và trả về" style="rounded=1;whiteSpace=wrap;html=1;absoluteArcSize=1;arcSize=14;strokeWidth=2;" vertex="1" parent="1">
          <mxGeometry x="-442.5" y="290" width="95" height="73.5" as="geometry" />
        </mxCell>
        <mxCell id="f5wrERzETFn6Pyd23jyl-111" style="edgeStyle=orthogonalEdgeStyle;rounded=0;orthogonalLoop=1;jettySize=auto;html=1;entryX=0;entryY=0.5;entryDx=0;entryDy=0;entryPerimeter=0;" edge="1" parent="1" source="f5wrERzETFn6Pyd23jyl-61" target="f5wrERzETFn6Pyd23jyl-109">
          <mxGeometry relative="1" as="geometry" />
        </mxCell>
        <mxCell id="f5wrERzETFn6Pyd23jyl-114" value="Trả về" style="rounded=1;whiteSpace=wrap;html=1;absoluteArcSize=1;arcSize=14;strokeWidth=2;" vertex="1" parent="1">
          <mxGeometry x="-290" y="172.5" width="90" height="85" as="geometry" />
        </mxCell>
        <mxCell id="f5wrERzETFn6Pyd23jyl-119" style="edgeStyle=orthogonalEdgeStyle;rounded=0;orthogonalLoop=1;jettySize=auto;html=1;" edge="1" parent="1" source="f5wrERzETFn6Pyd23jyl-117" target="f5wrERzETFn6Pyd23jyl-118">
          <mxGeometry relative="1" as="geometry" />
        </mxCell>
        <mxCell id="f5wrERzETFn6Pyd23jyl-117" value="lượt = lượt + 1" style="rounded=1;whiteSpace=wrap;html=1;absoluteArcSize=1;arcSize=14;strokeWidth=2;" vertex="1" parent="1">
          <mxGeometry x="760" y="642" width="100" height="100" as="geometry" />
        </mxCell>
        <mxCell id="f5wrERzETFn6Pyd23jyl-118" value="lượt % lượt lưu = 0" style="strokeWidth=2;html=1;shape=mxgraph.flowchart.decision;whiteSpace=wrap;" vertex="1" parent="1">
          <mxGeometry x="747.5" y="762" width="125" height="100" as="geometry" />
        </mxCell>
        <mxCell id="f5wrERzETFn6Pyd23jyl-126" value="Nhân vật &amp;lt; 3" style="strokeWidth=2;html=1;shape=mxgraph.flowchart.decision;whiteSpace=wrap;" vertex="1" parent="1">
          <mxGeometry x="-70" y="1885" width="100" height="100" as="geometry" />
        </mxCell>
        <mxCell id="f5wrERzETFn6Pyd23jyl-127" value="Hiển thị đội hình" style="rounded=1;whiteSpace=wrap;html=1;absoluteArcSize=1;arcSize=14;strokeWidth=2;" vertex="1" parent="1">
          <mxGeometry x="-200" y="1885" width="100" height="100" as="geometry" />
        </mxCell>
        <mxCell id="f5wrERzETFn6Pyd23jyl-128" style="edgeStyle=orthogonalEdgeStyle;rounded=0;orthogonalLoop=1;jettySize=auto;html=1;entryX=0;entryY=0.5;entryDx=0;entryDy=0;entryPerimeter=0;" edge="1" parent="1" source="f5wrERzETFn6Pyd23jyl-127" target="f5wrERzETFn6Pyd23jyl-126">
          <mxGeometry relative="1" as="geometry" />
        </mxCell>
        <mxCell id="f5wrERzETFn6Pyd23jyl-129" style="edgeStyle=orthogonalEdgeStyle;rounded=0;orthogonalLoop=1;jettySize=auto;html=1;entryX=0;entryY=0.5;entryDx=0;entryDy=0;entryPerimeter=0;" edge="1" parent="1" source="f5wrERzETFn6Pyd23jyl-126" target="l8NPkd662WTSOCFMI4Qp-35">
          <mxGeometry relative="1" as="geometry" />
        </mxCell>
        <mxCell id="f5wrERzETFn6Pyd23jyl-156" value="Có" style="edgeLabel;html=1;align=center;verticalAlign=middle;resizable=0;points=[];" vertex="1" connectable="0" parent="f5wrERzETFn6Pyd23jyl-129">
          <mxGeometry x="-0.6742" y="-1" relative="1" as="geometry">
            <mxPoint as="offset" />
          </mxGeometry>
        </mxCell>
        <mxCell id="f5wrERzETFn6Pyd23jyl-132" style="edgeStyle=orthogonalEdgeStyle;rounded=0;orthogonalLoop=1;jettySize=auto;html=1;entryX=0.5;entryY=0;entryDx=0;entryDy=0;exitX=0.5;exitY=0;exitDx=0;exitDy=0;" edge="1" parent="1" source="f5wrERzETFn6Pyd23jyl-133" target="l8NPkd662WTSOCFMI4Qp-28">
          <mxGeometry relative="1" as="geometry">
            <Array as="points">
              <mxPoint x="520.59" y="1865" />
              <mxPoint x="240.59" y="1865" />
            </Array>
          </mxGeometry>
        </mxCell>
        <mxCell id="f5wrERzETFn6Pyd23jyl-134" style="edgeStyle=orthogonalEdgeStyle;rounded=0;orthogonalLoop=1;jettySize=auto;html=1;entryX=0;entryY=0.5;entryDx=0;entryDy=0;" edge="1" parent="1" source="f5wrERzETFn6Pyd23jyl-131" target="f5wrERzETFn6Pyd23jyl-133">
          <mxGeometry relative="1" as="geometry" />
        </mxCell>
        <mxCell id="f5wrERzETFn6Pyd23jyl-145" value="Có" style="edgeLabel;html=1;align=center;verticalAlign=middle;resizable=0;points=[];" vertex="1" connectable="0" parent="f5wrERzETFn6Pyd23jyl-134">
          <mxGeometry x="0.18" y="1" relative="1" as="geometry">
            <mxPoint as="offset" />
          </mxGeometry>
        </mxCell>
        <mxCell id="f5wrERzETFn6Pyd23jyl-137" style="edgeStyle=orthogonalEdgeStyle;rounded=0;orthogonalLoop=1;jettySize=auto;html=1;entryX=0.5;entryY=0;entryDx=0;entryDy=0;" edge="1" parent="1" source="f5wrERzETFn6Pyd23jyl-131" target="f5wrERzETFn6Pyd23jyl-136">
          <mxGeometry relative="1" as="geometry" />
        </mxCell>
        <mxCell id="f5wrERzETFn6Pyd23jyl-146" value="Không" style="edgeLabel;html=1;align=center;verticalAlign=middle;resizable=0;points=[];" vertex="1" connectable="0" parent="f5wrERzETFn6Pyd23jyl-137">
          <mxGeometry x="-0.3185" y="-1" relative="1" as="geometry">
            <mxPoint as="offset" />
          </mxGeometry>
        </mxCell>
        <mxCell id="f5wrERzETFn6Pyd23jyl-131" value="Lựa chọn vượt quá khoảng giá trị" style="strokeWidth=2;html=1;shape=mxgraph.flowchart.decision;whiteSpace=wrap;" vertex="1" parent="1">
          <mxGeometry x="320.59" y="1885" width="120" height="100" as="geometry" />
        </mxCell>
        <mxCell id="f5wrERzETFn6Pyd23jyl-133" value="Thông báo lỗi" style="rounded=1;whiteSpace=wrap;html=1;absoluteArcSize=1;arcSize=14;strokeWidth=2;" vertex="1" parent="1">
          <mxGeometry x="470.59" y="1885" width="100" height="100" as="geometry" />
        </mxCell>
        <mxCell id="f5wrERzETFn6Pyd23jyl-135" style="edgeStyle=orthogonalEdgeStyle;rounded=0;orthogonalLoop=1;jettySize=auto;html=1;entryX=0;entryY=0.5;entryDx=0;entryDy=0;entryPerimeter=0;" edge="1" parent="1" source="l8NPkd662WTSOCFMI4Qp-28" target="f5wrERzETFn6Pyd23jyl-131">
          <mxGeometry relative="1" as="geometry" />
        </mxCell>
        <mxCell id="f5wrERzETFn6Pyd23jyl-144" style="edgeStyle=orthogonalEdgeStyle;rounded=0;orthogonalLoop=1;jettySize=auto;html=1;entryX=0.5;entryY=0;entryDx=0;entryDy=0;" edge="1" parent="1" source="f5wrERzETFn6Pyd23jyl-136" target="f5wrERzETFn6Pyd23jyl-127">
          <mxGeometry relative="1" as="geometry">
            <Array as="points">
              <mxPoint x="580" y="2070" />
              <mxPoint x="580" y="1850" />
              <mxPoint x="-150" y="1850" />
            </Array>
          </mxGeometry>
        </mxCell>
        <mxCell id="f5wrERzETFn6Pyd23jyl-136" value="Thêm nhân vật vào đội hình" style="rounded=1;whiteSpace=wrap;html=1;absoluteArcSize=1;arcSize=14;strokeWidth=2;" vertex="1" parent="1">
          <mxGeometry x="330.59" y="2020" width="100" height="100" as="geometry" />
        </mxCell>
        <mxCell id="f5wrERzETFn6Pyd23jyl-164" style="edgeStyle=orthogonalEdgeStyle;rounded=0;orthogonalLoop=1;jettySize=auto;html=1;entryX=0;entryY=0.5;entryDx=0;entryDy=0;" edge="1" parent="1" source="f5wrERzETFn6Pyd23jyl-139" target="f5wrERzETFn6Pyd23jyl-140">
          <mxGeometry relative="1" as="geometry" />
        </mxCell>
        <mxCell id="f5wrERzETFn6Pyd23jyl-168" value="Có" style="edgeLabel;html=1;align=center;verticalAlign=middle;resizable=0;points=[];" vertex="1" connectable="0" parent="f5wrERzETFn6Pyd23jyl-164">
          <mxGeometry x="0.2316" y="1" relative="1" as="geometry">
            <mxPoint as="offset" />
          </mxGeometry>
        </mxCell>
        <mxCell id="f5wrERzETFn6Pyd23jyl-167" style="edgeStyle=orthogonalEdgeStyle;rounded=0;orthogonalLoop=1;jettySize=auto;html=1;entryX=0.5;entryY=0;entryDx=0;entryDy=0;" edge="1" parent="1" source="f5wrERzETFn6Pyd23jyl-139" target="f5wrERzETFn6Pyd23jyl-141">
          <mxGeometry relative="1" as="geometry" />
        </mxCell>
        <mxCell id="f5wrERzETFn6Pyd23jyl-169" value="Không" style="edgeLabel;html=1;align=center;verticalAlign=middle;resizable=0;points=[];" vertex="1" connectable="0" parent="f5wrERzETFn6Pyd23jyl-167">
          <mxGeometry x="0.1269" y="-2" relative="1" as="geometry">
            <mxPoint as="offset" />
          </mxGeometry>
        </mxCell>
        <mxCell id="f5wrERzETFn6Pyd23jyl-139" value="Lựa chọn vượt quá khoảng giá trị" style="strokeWidth=2;html=1;shape=mxgraph.flowchart.decision;whiteSpace=wrap;" vertex="1" parent="1">
          <mxGeometry x="320.59" y="2170" width="120" height="100" as="geometry" />
        </mxCell>
        <mxCell id="f5wrERzETFn6Pyd23jyl-166" style="edgeStyle=orthogonalEdgeStyle;rounded=0;orthogonalLoop=1;jettySize=auto;html=1;entryX=0.5;entryY=0;entryDx=0;entryDy=0;" edge="1" parent="1" source="f5wrERzETFn6Pyd23jyl-140" target="l8NPkd662WTSOCFMI4Qp-39">
          <mxGeometry relative="1" as="geometry">
            <Array as="points">
              <mxPoint x="521" y="2150" />
              <mxPoint x="241" y="2150" />
            </Array>
          </mxGeometry>
        </mxCell>
        <mxCell id="f5wrERzETFn6Pyd23jyl-140" value="Thông báo lỗi" style="rounded=1;whiteSpace=wrap;html=1;absoluteArcSize=1;arcSize=14;strokeWidth=2;" vertex="1" parent="1">
          <mxGeometry x="470.59" y="2170" width="100" height="100" as="geometry" />
        </mxCell>
        <mxCell id="f5wrERzETFn6Pyd23jyl-170" style="edgeStyle=orthogonalEdgeStyle;rounded=0;orthogonalLoop=1;jettySize=auto;html=1;entryX=0.5;entryY=0;entryDx=0;entryDy=0;" edge="1" parent="1" source="f5wrERzETFn6Pyd23jyl-141" target="f5wrERzETFn6Pyd23jyl-127">
          <mxGeometry relative="1" as="geometry">
            <Array as="points">
              <mxPoint x="580" y="2350" />
              <mxPoint x="580" y="1850" />
              <mxPoint x="-150" y="1850" />
            </Array>
          </mxGeometry>
        </mxCell>
        <mxCell id="f5wrERzETFn6Pyd23jyl-141" value="Xóa nhân vật khỏi đội hình và sắp xếp lại mảng" style="rounded=1;whiteSpace=wrap;html=1;absoluteArcSize=1;arcSize=14;strokeWidth=2;" vertex="1" parent="1">
          <mxGeometry x="330.59" y="2300" width="100" height="100" as="geometry" />
        </mxCell>
        <mxCell id="f5wrERzETFn6Pyd23jyl-142" style="edgeStyle=orthogonalEdgeStyle;rounded=0;orthogonalLoop=1;jettySize=auto;html=1;entryX=0.5;entryY=0;entryDx=0;entryDy=0;entryPerimeter=0;" edge="1" parent="1" source="f5wrERzETFn6Pyd23jyl-126" target="l8NPkd662WTSOCFMI4Qp-32">
          <mxGeometry relative="1" as="geometry" />
        </mxCell>
        <mxCell id="f5wrERzETFn6Pyd23jyl-157" value="Không" style="edgeLabel;html=1;align=center;verticalAlign=middle;resizable=0;points=[];" vertex="1" connectable="0" parent="f5wrERzETFn6Pyd23jyl-142">
          <mxGeometry x="-0.8079" y="-1" relative="1" as="geometry">
            <mxPoint as="offset" />
          </mxGeometry>
        </mxCell>
        <mxCell id="f5wrERzETFn6Pyd23jyl-143" style="edgeStyle=orthogonalEdgeStyle;rounded=0;orthogonalLoop=1;jettySize=auto;html=1;entryX=0.5;entryY=0;entryDx=0;entryDy=0;entryPerimeter=0;exitX=0.5;exitY=1;exitDx=0;exitDy=0;exitPerimeter=0;" edge="1" parent="1" source="l8NPkd662WTSOCFMI4Qp-35" target="l8NPkd662WTSOCFMI4Qp-32">
          <mxGeometry relative="1" as="geometry">
            <Array as="points">
              <mxPoint x="116" y="2060" />
              <mxPoint x="-20" y="2060" />
            </Array>
          </mxGeometry>
        </mxCell>
        <mxCell id="f5wrERzETFn6Pyd23jyl-172" value="Không" style="edgeLabel;html=1;align=center;verticalAlign=middle;resizable=0;points=[];" vertex="1" connectable="0" parent="f5wrERzETFn6Pyd23jyl-143">
          <mxGeometry x="-0.9407" relative="1" as="geometry">
            <mxPoint as="offset" />
          </mxGeometry>
        </mxCell>
        <mxCell id="f5wrERzETFn6Pyd23jyl-147" style="edgeStyle=orthogonalEdgeStyle;rounded=0;orthogonalLoop=1;jettySize=auto;html=1;entryX=0;entryY=0.5;entryDx=0;entryDy=0;entryPerimeter=0;" edge="1" parent="1" source="l8NPkd662WTSOCFMI4Qp-32" target="l8NPkd662WTSOCFMI4Qp-34">
          <mxGeometry relative="1" as="geometry" />
        </mxCell>
        <mxCell id="f5wrERzETFn6Pyd23jyl-158" value="Có" style="edgeLabel;html=1;align=center;verticalAlign=middle;resizable=0;points=[];" vertex="1" connectable="0" parent="f5wrERzETFn6Pyd23jyl-147">
          <mxGeometry x="-0.3838" y="2" relative="1" as="geometry">
            <mxPoint as="offset" />
          </mxGeometry>
        </mxCell>
        <mxCell id="f5wrERzETFn6Pyd23jyl-148" style="edgeStyle=orthogonalEdgeStyle;rounded=0;orthogonalLoop=1;jettySize=auto;html=1;entryX=0.5;entryY=0;entryDx=0;entryDy=0;entryPerimeter=0;" edge="1" parent="1" source="l8NPkd662WTSOCFMI4Qp-34" target="l8NPkd662WTSOCFMI4Qp-37">
          <mxGeometry relative="1" as="geometry" />
        </mxCell>
        <mxCell id="f5wrERzETFn6Pyd23jyl-160" value="Không" style="edgeLabel;html=1;align=center;verticalAlign=middle;resizable=0;points=[];" vertex="1" connectable="0" parent="f5wrERzETFn6Pyd23jyl-148">
          <mxGeometry x="-0.811" y="-4" relative="1" as="geometry">
            <mxPoint as="offset" />
          </mxGeometry>
        </mxCell>
        <mxCell id="f5wrERzETFn6Pyd23jyl-149" style="edgeStyle=orthogonalEdgeStyle;rounded=0;orthogonalLoop=1;jettySize=auto;html=1;entryX=0.5;entryY=0;entryDx=0;entryDy=0;entryPerimeter=0;" edge="1" parent="1" source="l8NPkd662WTSOCFMI4Qp-32" target="l8NPkd662WTSOCFMI4Qp-36">
          <mxGeometry relative="1" as="geometry" />
        </mxCell>
        <mxCell id="f5wrERzETFn6Pyd23jyl-159" value="Không" style="edgeLabel;html=1;align=center;verticalAlign=middle;resizable=0;points=[];" vertex="1" connectable="0" parent="f5wrERzETFn6Pyd23jyl-149">
          <mxGeometry x="-0.8876" relative="1" as="geometry">
            <mxPoint as="offset" />
          </mxGeometry>
        </mxCell>
        <mxCell id="f5wrERzETFn6Pyd23jyl-150" style="edgeStyle=orthogonalEdgeStyle;rounded=0;orthogonalLoop=1;jettySize=auto;html=1;entryX=0.5;entryY=0;entryDx=0;entryDy=0;entryPerimeter=0;" edge="1" parent="1" source="l8NPkd662WTSOCFMI4Qp-37" target="l8NPkd662WTSOCFMI4Qp-36">
          <mxGeometry relative="1" as="geometry" />
        </mxCell>
        <mxCell id="f5wrERzETFn6Pyd23jyl-161" value="Không" style="edgeLabel;html=1;align=center;verticalAlign=middle;resizable=0;points=[];" vertex="1" connectable="0" parent="f5wrERzETFn6Pyd23jyl-150">
          <mxGeometry x="-0.4079" y="-1" relative="1" as="geometry">
            <mxPoint as="offset" />
          </mxGeometry>
        </mxCell>
        <mxCell id="f5wrERzETFn6Pyd23jyl-151" value="Thoát" style="rounded=1;whiteSpace=wrap;html=1;absoluteArcSize=1;arcSize=14;strokeWidth=2;" vertex="1" parent="1">
          <mxGeometry x="65.59" y="2570" width="100" height="100" as="geometry" />
        </mxCell>
        <mxCell id="f5wrERzETFn6Pyd23jyl-154" style="edgeStyle=orthogonalEdgeStyle;rounded=0;orthogonalLoop=1;jettySize=auto;html=1;entryX=0.5;entryY=1;entryDx=0;entryDy=0;" edge="1" parent="1" source="f5wrERzETFn6Pyd23jyl-152" target="f5wrERzETFn6Pyd23jyl-127">
          <mxGeometry relative="1" as="geometry" />
        </mxCell>
        <mxCell id="f5wrERzETFn6Pyd23jyl-152" value="Thông báo lỗi" style="rounded=1;whiteSpace=wrap;html=1;absoluteArcSize=1;arcSize=14;strokeWidth=2;" vertex="1" parent="1">
          <mxGeometry x="-200" y="2570" width="100" height="100" as="geometry" />
        </mxCell>
        <mxCell id="f5wrERzETFn6Pyd23jyl-163" style="edgeStyle=orthogonalEdgeStyle;rounded=0;orthogonalLoop=1;jettySize=auto;html=1;entryX=0;entryY=0.5;entryDx=0;entryDy=0;entryPerimeter=0;" edge="1" parent="1" source="l8NPkd662WTSOCFMI4Qp-39" target="f5wrERzETFn6Pyd23jyl-139">
          <mxGeometry relative="1" as="geometry" />
        </mxCell>
        <mxCell id="f5wrERzETFn6Pyd23jyl-179" style="edgeStyle=orthogonalEdgeStyle;rounded=0;orthogonalLoop=1;jettySize=auto;html=1;entryX=0;entryY=0.5;entryDx=0;entryDy=0;" edge="1" parent="1" source="f5wrERzETFn6Pyd23jyl-175" target="f5wrERzETFn6Pyd23jyl-176">
          <mxGeometry relative="1" as="geometry" />
        </mxCell>
        <mxCell id="f5wrERzETFn6Pyd23jyl-180" value="Có" style="edgeLabel;html=1;align=center;verticalAlign=middle;resizable=0;points=[];" vertex="1" connectable="0" parent="f5wrERzETFn6Pyd23jyl-179">
          <mxGeometry x="0.2631" relative="1" as="geometry">
            <mxPoint as="offset" />
          </mxGeometry>
        </mxCell>
        <mxCell id="f5wrERzETFn6Pyd23jyl-185" style="edgeStyle=orthogonalEdgeStyle;rounded=0;orthogonalLoop=1;jettySize=auto;html=1;entryX=0.5;entryY=0;entryDx=0;entryDy=0;" edge="1" parent="1" source="f5wrERzETFn6Pyd23jyl-175" target="f5wrERzETFn6Pyd23jyl-181">
          <mxGeometry relative="1" as="geometry" />
        </mxCell>
        <mxCell id="f5wrERzETFn6Pyd23jyl-191" value="Không" style="edgeLabel;html=1;align=center;verticalAlign=middle;resizable=0;points=[];" vertex="1" connectable="0" parent="f5wrERzETFn6Pyd23jyl-185">
          <mxGeometry x="0.28" y="1" relative="1" as="geometry">
            <mxPoint as="offset" />
          </mxGeometry>
        </mxCell>
        <mxCell id="f5wrERzETFn6Pyd23jyl-175" value="Lựa chọn vượt quá khoảng giá trị" style="strokeWidth=2;html=1;shape=mxgraph.flowchart.decision;whiteSpace=wrap;" vertex="1" parent="1">
          <mxGeometry x="320.59000000000003" y="2440" width="120" height="100" as="geometry" />
        </mxCell>
        <mxCell id="f5wrERzETFn6Pyd23jyl-177" style="edgeStyle=orthogonalEdgeStyle;rounded=0;orthogonalLoop=1;jettySize=auto;html=1;entryX=0.5;entryY=0;entryDx=0;entryDy=0;" edge="1" parent="1" source="f5wrERzETFn6Pyd23jyl-176" target="l8NPkd662WTSOCFMI4Qp-38">
          <mxGeometry relative="1" as="geometry">
            <Array as="points">
              <mxPoint x="521" y="2420" />
              <mxPoint x="241" y="2420" />
            </Array>
          </mxGeometry>
        </mxCell>
        <mxCell id="f5wrERzETFn6Pyd23jyl-176" value="Thông báo lỗi" style="rounded=1;whiteSpace=wrap;html=1;absoluteArcSize=1;arcSize=14;strokeWidth=2;" vertex="1" parent="1">
          <mxGeometry x="470.59000000000003" y="2440" width="100" height="100" as="geometry" />
        </mxCell>
        <mxCell id="f5wrERzETFn6Pyd23jyl-178" style="edgeStyle=orthogonalEdgeStyle;rounded=0;orthogonalLoop=1;jettySize=auto;html=1;entryX=0;entryY=0.5;entryDx=0;entryDy=0;entryPerimeter=0;" edge="1" parent="1" source="l8NPkd662WTSOCFMI4Qp-38" target="f5wrERzETFn6Pyd23jyl-175">
          <mxGeometry relative="1" as="geometry" />
        </mxCell>
        <mxCell id="f5wrERzETFn6Pyd23jyl-188" style="edgeStyle=orthogonalEdgeStyle;rounded=0;orthogonalLoop=1;jettySize=auto;html=1;entryX=0.5;entryY=0;entryDx=0;entryDy=0;exitX=0.5;exitY=1;exitDx=0;exitDy=0;exitPerimeter=0;" edge="1" parent="1" source="f5wrERzETFn6Pyd23jyl-182" target="f5wrERzETFn6Pyd23jyl-187">
          <mxGeometry relative="1" as="geometry" />
        </mxCell>
        <mxCell id="f5wrERzETFn6Pyd23jyl-190" value="Không" style="edgeLabel;html=1;align=center;verticalAlign=middle;resizable=0;points=[];" vertex="1" connectable="0" parent="f5wrERzETFn6Pyd23jyl-188">
          <mxGeometry x="-0.2" y="-2" relative="1" as="geometry">
            <mxPoint as="offset" />
          </mxGeometry>
        </mxCell>
        <mxCell id="f5wrERzETFn6Pyd23jyl-181" value="Hiển thị các nhân vật có thể chọn, cho phép người dùng chọn" style="rounded=1;whiteSpace=wrap;html=1;absoluteArcSize=1;arcSize=14;strokeWidth=2;" vertex="1" parent="1">
          <mxGeometry x="330.59000000000003" y="2570" width="100" height="100" as="geometry" />
        </mxCell>
        <mxCell id="f5wrERzETFn6Pyd23jyl-183" style="edgeStyle=orthogonalEdgeStyle;rounded=0;orthogonalLoop=1;jettySize=auto;html=1;entryX=0.5;entryY=1;entryDx=0;entryDy=0;" edge="1" parent="1" source="f5wrERzETFn6Pyd23jyl-182" target="f5wrERzETFn6Pyd23jyl-176">
          <mxGeometry relative="1" as="geometry" />
        </mxCell>
        <mxCell id="f5wrERzETFn6Pyd23jyl-184" value="Có" style="edgeLabel;html=1;align=center;verticalAlign=middle;resizable=0;points=[];" vertex="1" connectable="0" parent="f5wrERzETFn6Pyd23jyl-183">
          <mxGeometry x="0.2867" y="-1" relative="1" as="geometry">
            <mxPoint as="offset" />
          </mxGeometry>
        </mxCell>
        <mxCell id="f5wrERzETFn6Pyd23jyl-182" value="Lựa chọn vượt quá khoảng giá trị" style="strokeWidth=2;html=1;shape=mxgraph.flowchart.decision;whiteSpace=wrap;" vertex="1" parent="1">
          <mxGeometry x="460.59000000000003" y="2570" width="120" height="100" as="geometry" />
        </mxCell>
        <mxCell id="f5wrERzETFn6Pyd23jyl-186" style="edgeStyle=orthogonalEdgeStyle;rounded=0;orthogonalLoop=1;jettySize=auto;html=1;entryX=0;entryY=0.5;entryDx=0;entryDy=0;entryPerimeter=0;" edge="1" parent="1" source="f5wrERzETFn6Pyd23jyl-181" target="f5wrERzETFn6Pyd23jyl-182">
          <mxGeometry relative="1" as="geometry" />
        </mxCell>
        <mxCell id="f5wrERzETFn6Pyd23jyl-193" style="edgeStyle=orthogonalEdgeStyle;rounded=0;orthogonalLoop=1;jettySize=auto;html=1;entryX=0.5;entryY=0;entryDx=0;entryDy=0;" edge="1" parent="1" source="f5wrERzETFn6Pyd23jyl-187" target="f5wrERzETFn6Pyd23jyl-127">
          <mxGeometry relative="1" as="geometry">
            <Array as="points">
              <mxPoint x="580" y="2750" />
              <mxPoint x="580" y="1850" />
              <mxPoint x="-150" y="1850" />
            </Array>
          </mxGeometry>
        </mxCell>
        <mxCell id="f5wrERzETFn6Pyd23jyl-187" value="Đổi nhân vật trong đội hình" style="rounded=1;whiteSpace=wrap;html=1;absoluteArcSize=1;arcSize=14;strokeWidth=2;" vertex="1" parent="1">
          <mxGeometry x="470.59000000000003" y="2700" width="100" height="100" as="geometry" />
        </mxCell>
        <mxCell id="f5wrERzETFn6Pyd23jyl-237" style="edgeStyle=orthogonalEdgeStyle;rounded=0;orthogonalLoop=1;jettySize=auto;html=1;entryX=1;entryY=0.5;entryDx=0;entryDy=0;" edge="1" parent="1" source="f5wrERzETFn6Pyd23jyl-234" target="oJ3E4rCQZsHQg811ANoI-50">
          <mxGeometry relative="1" as="geometry">
            <Array as="points">
              <mxPoint x="1770" y="576" />
              <mxPoint x="1770" y="65" />
            </Array>
          </mxGeometry>
        </mxCell>
        <mxCell id="f5wrERzETFn6Pyd23jyl-234" value="Trừ máu" style="rounded=1;whiteSpace=wrap;html=1;absoluteArcSize=1;arcSize=14;strokeWidth=2;" vertex="1" parent="1">
          <mxGeometry x="1587.5" y="526" width="95" height="84" as="geometry" />
        </mxCell>
        <mxCell id="f5wrERzETFn6Pyd23jyl-238" value="Tp" style="rounded=1;whiteSpace=wrap;html=1;absoluteArcSize=1;arcSize=14;strokeWidth=2;" vertex="1" parent="1">
          <mxGeometry x="1740" y="1665" width="100" height="100" as="geometry" />
        </mxCell>
      </root>
    </mxGraphModel>
  </diagram>
</mxfile>
